<?xml version="1.0" encoding="utf-8"?>
<!-- Generator: Adobe Illustrator 23.0.3, SVG Export Plug-In . SVG Version: 6.00 Build 0)  -->
<svg version="1.1" id="Layer_1" xmlns="http://www.w3.org/2000/svg" xmlns:xlink="http://www.w3.org/1999/xlink" x="0px" y="0px"
	 viewBox="0 0 152.55 50.18" style="enable-background:new 0 0 152.55 50.18;" xml:space="preserve">
<style type="text/css">
	.st0{clip-path:url(#SVGID_2_);fill:#3B3330;}
	.st1{clip-path:url(#SVGID_2_);fill:#63E0A6;}
	.st2{clip-path:url(#SVGID_2_);fill:#4AC2CF;}
	.st3{clip-path:url(#SVGID_2_);fill:#F26B40;}
	.st4{clip-path:url(#SVGID_2_);fill:#E8D157;}
	.st5{clip-path:url(#SVGID_2_);fill:#B5F58A;}
	.st6{clip-path:url(#SVGID_2_);fill:#FCAD2B;}
	.st7{clip-path:url(#SVGID_2_);fill:#2EAB70;}
	.st8{clip-path:url(#SVGID_2_);fill:#E35C30;}
</style>
<g>
	<defs>
		<rect id="SVGID_1_" x="6.27" y="1.09" width="142.84" height="47"/>
	</defs>
	<clipPath id="SVGID_2_">
		<use xlink:href="#SVGID_1_"  style="overflow:visible;"/>
	</clipPath>
	<path class="st0" d="M77.61,15.18c-5.17,0-9.01,4.11-9.01,9.39c0,5.28,3.84,9.39,9.01,9.39c5.17,0,9.01-3.84,9.01-9.39
		C86.61,19.02,82.78,15.18,77.61,15.18 M77.88,36.78c-4.05,0-7.41-1.92-9.27-5.07v13.23c0,0.91-0.69,1.6-1.6,1.6
		c-0.91,0-1.6-0.69-1.6-1.6V14.16c0-0.91,0.69-1.6,1.6-1.6c0.91,0,1.6,0.69,1.6,1.6v3.25c1.97-3.25,5.28-5.07,9.27-5.07
		c6.71,0,11.93,5.23,11.93,12.22C89.81,31.55,84.59,36.78,77.88,36.78"/>
	<path class="st0" d="M96.04,36.57c-0.9,0-1.65-0.69-1.65-1.6V14.16c0-0.91,0.75-1.6,1.65-1.6c0.91,0,1.54,0.69,1.54,1.6v20.81
		C97.59,35.88,96.95,36.57,96.04,36.57 M96.04,6.38c-1.06,0-1.97-0.85-1.97-1.92c0-1.07,0.91-1.92,1.97-1.92
		c1.07,0,1.87,0.85,1.87,1.92C97.91,5.52,97.11,6.38,96.04,6.38"/>
	<path class="st0" d="M115.7,15.18c-5.17,0-9.01,4.11-9.01,9.39c0,5.28,3.84,9.39,9.01,9.39c5.17,0,9-3.84,9-9.39
		C124.71,19.02,120.87,15.18,115.7,15.18 M115.97,36.78c-4.05,0-7.4-1.92-9.27-5.07v13.23c0,0.91-0.69,1.6-1.6,1.6
		c-0.9,0-1.6-0.69-1.6-1.6V14.16c0-0.91,0.69-1.6,1.6-1.6c0.91,0,1.6,0.69,1.6,1.6v3.25c1.97-3.25,5.28-5.07,9.27-5.07
		c6.71,0,11.93,5.23,11.93,12.22C127.9,31.55,122.68,36.78,115.97,36.78"/>
	<path class="st0" d="M139.52,36.78c-3.04,0-6.4-0.96-9.22-3.04c-0.32-0.21-0.53-0.64-0.53-1.01c0-0.27,0.06-0.53,0.22-0.75
		c0.26-0.37,0.64-0.53,1.01-0.53c0.27,0,0.53,0.06,0.74,0.22c2.34,1.65,4.8,2.51,7.62,2.51c3.3,0,6.66-1.12,6.66-3.95
		c0-2.19-2.24-3.25-7.84-5.12c-4.21-1.44-7.46-2.99-7.46-6.67c0-3.79,3.95-6.08,8.9-6.08c3.68,0,6.02,0.85,8.37,2.35
		c0.43,0.27,0.64,0.69,0.64,1.12c0,0.21-0.05,0.43-0.16,0.64c-0.21,0.43-0.69,0.64-1.12,0.64c-0.21,0-0.48-0.05-0.69-0.16
		c-2.08-1.28-4.37-1.92-6.82-1.92c-3.57,0-6.07,1.12-6.07,3.47c0,2.4,1.81,3.04,7.03,4.75c5.17,1.71,8.31,3.47,8.31,6.93
		C149.11,34.01,145.33,36.78,139.52,36.78"/>
	<path class="st1" d="M6.27,24.59c0-12.98,10.51-23.5,23.47-23.5c12.96,0,23.47,10.52,23.47,23.5c0,12.98-10.51,23.5-23.47,23.5
		C16.78,48.09,6.27,37.57,6.27,24.59"/>
	<path class="st2" d="M13.15,41.21l8.01-8.02l0,0c-2.19-2.2-3.55-5.23-3.55-8.59c0-3.36,1.36-6.39,3.55-8.59l-8.02-8.03
		C3.98,17.15,3.98,32.03,13.15,41.21"/>
	<path class="st3" d="M21.17,33.18c2.2,2.2,5.23,3.56,8.58,3.56c6.69,0,12.12-5.43,12.12-12.15c0-6.73-5.43-12.15-12.12-12.15
		c-3.35,0-6.39,1.36-8.58,3.56c-2.19,2.2-3.55,5.23-3.55,8.59C17.62,27.95,18.97,30.98,21.17,33.18"/>
	<path class="st4" d="M29.73,1.09c-6,0-12,2.3-16.58,6.88l-0.01,0l0,0C17.4,3.72,23.26,1.09,29.73,1.09c1.45,0,2.86,0.13,4.22,0.38
		C32.56,1.22,31.15,1.09,29.73,1.09"/>
	<path class="st5" d="M29.74,1.09c-6.48,0-12.35,2.63-16.59,6.88L21.17,16c2.2-2.2,5.23-3.56,8.58-3.56c3.35,0,6.38,1.36,8.58,3.56
		l8.01-8.02c-3.51-3.51-7.85-5.68-12.38-6.51C32.59,1.22,31.18,1.09,29.74,1.09"/>
	<path class="st6" d="M29.75,12.44c-3.35,0-6.39,1.36-8.58,3.56l8.58,8.59L38.32,16C36.13,13.8,33.1,12.44,29.75,12.44"/>
	<path class="st7" d="M53.21,24.59H41.87c0,6.72-5.43,12.15-12.12,12.15h0l0,11.35C42.71,48.09,53.21,37.57,53.21,24.59"/>
	<path class="st8" d="M41.87,24.59H29.75h0v12.15h0C36.44,36.74,41.87,31.31,41.87,24.59"/>
</g>
</svg>
