<?xml version="1.0" encoding="utf-8"?>
<!-- Generator: Adobe Illustrator 24.0.0, SVG Export Plug-In . SVG Version: 6.00 Build 0)  -->
<svg version="1.1" xmlns="http://www.w3.org/2000/svg" xmlns:xlink="http://www.w3.org/1999/xlink" x="0px" y="0px"
	 viewBox="0 0 5468 3384" style="enable-background:new 0 0 5468 3384;" xml:space="preserve">
<style type="text/css">
	.st0{display:none;}
	.st1{display:inline;}
	.st2{fill:#C3D7F5;}
	.st3{display:inline;fill:#FFFFFF;fill-opacity:0.4;}
	.st4{display:inline;fill:#FAFAFA;fill-opacity:0;}
	.st5{display:inline;fill:#FFFFFF;fill-opacity:0.2;}
	.st6{display:inline;fill:#FFFFFF;stroke:#000000;stroke-width:3.2943;stroke-linecap:round;stroke-miterlimit:80;}
	.st7{display:inline;fill:none;stroke:#000000;stroke-width:3.2943;stroke-linecap:round;stroke-miterlimit:80;}
	.st8{display:inline;fill:none;stroke:#7D7D7D;stroke-width:3.2943;stroke-linecap:round;stroke-miterlimit:80;}
	.st9{fill:none;stroke:#000000;stroke-width:8.000000e-04;stroke-linecap:round;stroke-miterlimit:80;}
	.st10{font-family:'JansonText-Roman';}
	.st11{font-size:32.9434px;}
	.st12{display:inline;fill:#FFFFFF;stroke:#7D7D7D;stroke-width:3.2943;stroke-linecap:round;stroke-miterlimit:80;}
	.st13{fill:none;stroke:#7D7D7D;stroke-width:8.000000e-04;stroke-linecap:round;stroke-miterlimit:80;}
	.st14{fill:#FFFFFF;fill-opacity:0.4;}
	.st15{fill:#FAFAFA;fill-opacity:0;}
	.st16{fill:#FFFFFF;fill-opacity:0.2;}
	.st17{fill:#FFFFFF;stroke:#000000;stroke-width:3.4443;stroke-linecap:round;stroke-miterlimit:80;}
	.st18{fill:none;stroke:#000000;stroke-width:3.4443;stroke-linecap:round;stroke-miterlimit:80;}
	.st19{fill:none;stroke:#646464;stroke-width:3.4443;stroke-linecap:round;stroke-miterlimit:80;}
	.st20{font-size:34.4425px;}
	.st21{fill:none;stroke:#646464;stroke-width:8.000000e-04;stroke-linecap:round;stroke-miterlimit:80;}
	.st22{fill:#646464;}
	.st23{fill:#FFFFFF;stroke:#646464;stroke-width:3.4443;stroke-linecap:round;stroke-miterlimit:80;}
	.st24{display:none;fill:#C3D7F5;}
	.st25{fill:#FFFFFF;fill-opacity:0.2;stroke:#000000;stroke-width:3.44;stroke-miterlimit:10;}
	.st26{fill:none;}
	.st27{font-size:72px;}
	.st28{font-size:270px;}
	.st29{letter-spacing:54;}
	.st30{fill:#FFFFFF;stroke:#000000;stroke-width:3.44;stroke-linecap:round;stroke-miterlimit:80;}
</style>
<g id="Layer_1" class="st0">
	<g transform="scale(2,2)" class="st1">
		<rect x="0" class="st2" width="2734" height="1692"/>
	</g>
	<path class="st3" d="M755.3,192.3v3051h30v-3051H755.3z"/>
	<path class="st4" d="M785.3,192.3v3051h30v-3051H785.3z"/>
	<path class="st5" d="M815.4,192.3v3051h30v-3051H815.4z"/>
	<path class="st4" d="M845.4,192.3v3051h30v-3051H845.4z"/>
	<path class="st5" d="M875.4,192.3v3051h30v-3051H875.4z"/>
	<path class="st4" d="M905.4,192.3v3051h30v-3051H905.4z"/>
	<path class="st5" d="M935.5,192.3v3051h30v-3051H935.5z"/>
	<path class="st4" d="M965.5,192.3v3051h30v-3051H965.5z"/>
	<path class="st5" d="M995.5,192.3v3051h30v-3051H995.5z"/>
	<path class="st4" d="M1025.5,192.3v3051h30v-3051H1025.5z"/>
	<path class="st3" d="M1055.5,192.3v3051h30v-3051H1055.5z"/>
	<path class="st4" d="M1085.6,192.3v3051h30v-3051H1085.6z"/>
	<path class="st5" d="M1115.6,192.3v3051h30v-3051H1115.6z"/>
	<path class="st4" d="M1145.6,192.3v3051h30v-3051H1145.6z"/>
	<path class="st5" d="M1175.6,192.3v3051h30v-3051H1175.6z"/>
	<path class="st4" d="M1205.7,192.3v3051h30v-3051H1205.7z"/>
	<path class="st5" d="M1235.7,192.3v3051h30v-3051H1235.7z"/>
	<path class="st4" d="M1265.7,192.3v3051h30v-3051H1265.7z"/>
	<path class="st5" d="M1295.7,192.3v3051h30v-3051H1295.7z"/>
	<path class="st4" d="M1325.8,192.3v3051h30v-3051H1325.8z"/>
	<path class="st3" d="M1355.8,192.3v3051h30v-3051H1355.8z"/>
	<path class="st4" d="M1385.8,192.3v3051h30v-3051H1385.8z"/>
	<path class="st5" d="M1415.8,192.3v3051h30v-3051H1415.8z"/>
	<path class="st4" d="M1445.8,192.3v3051h30v-3051H1445.8z"/>
	<path class="st5" d="M1475.9,192.3v3051h30v-3051H1475.9z"/>
	<path class="st4" d="M1505.9,192.3v3051h30v-3051H1505.9z"/>
	<path class="st5" d="M1535.9,192.3v3051h30v-3051H1535.9z"/>
	<path class="st4" d="M1565.9,192.3v3051h30v-3051H1565.9z"/>
	<path class="st5" d="M1596,192.3v3051h30v-3051H1596z"/>
	<path class="st4" d="M1626,192.3v3051h30v-3051H1626z"/>
	<path class="st3" d="M1656,192.3v3051h30v-3051H1656z"/>
	<path class="st4" d="M1686,192.3v3051h30v-3051H1686z"/>
	<path class="st5" d="M1716,192.3v3051h30v-3051H1716z"/>
	<path class="st4" d="M1746.1,192.3v3051h30v-3051H1746.1z"/>
	<path class="st5" d="M1776.1,192.3v3051h30v-3051H1776.1z"/>
	<path class="st4" d="M1806.1,192.3v3051h30v-3051H1806.1z"/>
	<path class="st5" d="M1836.1,192.3v3051h30v-3051H1836.1z"/>
	<path class="st4" d="M1866.2,192.3v3051h30v-3051H1866.2z"/>
	<path class="st5" d="M1896.2,192.3v3051h30v-3051H1896.2z"/>
	<path class="st4" d="M1926.2,192.3v3051h30v-3051H1926.2z"/>
	<path class="st3" d="M1956.2,192.3v3051h30v-3051H1956.2z"/>
	<path class="st4" d="M1986.2,192.3v3051h30v-3051H1986.2z"/>
	<path class="st5" d="M2016.3,192.3v3051h30v-3051H2016.3z"/>
	<path class="st4" d="M2046.3,192.3v3051h30v-3051H2046.3z"/>
	<path class="st5" d="M2076.3,192.3v3051h30v-3051H2076.3z"/>
	<path class="st4" d="M2106.3,192.3v3051h30v-3051H2106.3z"/>
	<path class="st5" d="M2136.4,192.3v3051h30v-3051H2136.4z"/>
	<path class="st4" d="M2166.4,192.3v3051h30v-3051H2166.4z"/>
	<path class="st5" d="M2196.4,192.3v3051h30v-3051H2196.4z"/>
	<path class="st4" d="M2226.4,192.3v3051h30v-3051H2226.4z"/>
	<path class="st3" d="M2256.4,192.3v3051h30v-3051H2256.4z"/>
	<path class="st4" d="M2286.5,192.3v3051h30v-3051H2286.5z"/>
	<path class="st5" d="M2316.5,192.3v3051h30v-3051H2316.5z"/>
	<path class="st4" d="M2346.5,192.3v3051h30v-3051H2346.5z"/>
	<path class="st5" d="M2376.5,192.3v3051h30v-3051H2376.5z"/>
	<path class="st4" d="M2406.6,192.3v3051h30v-3051H2406.6z"/>
	<path class="st5" d="M2436.6,192.3v3051h30v-3051H2436.6z"/>
	<path class="st4" d="M2466.6,192.3v3051h30v-3051H2466.6z"/>
	<path class="st5" d="M2496.6,192.3v3051h30v-3051H2496.6z"/>
	<path class="st4" d="M2526.6,192.3v3051h30v-3051H2526.6z"/>
	<path class="st3" d="M2556.7,192.3v3051h30v-3051H2556.7z"/>
	<path class="st4" d="M2586.7,192.3v3051h30v-3051H2586.7z"/>
	<path class="st5" d="M2616.7,192.3v3051h30v-3051H2616.7z"/>
	<path class="st4" d="M2646.7,192.3v3051h30v-3051H2646.7z"/>
	<path class="st5" d="M2676.8,192.3v3051h30v-3051H2676.8z"/>
	<path class="st4" d="M2706.8,192.3v3051h30v-3051H2706.8z"/>
	<path class="st5" d="M2736.8,192.3v3051h30v-3051H2736.8z"/>
	<path class="st4" d="M2766.8,192.3v3051h30v-3051H2766.8z"/>
	<path class="st5" d="M2796.8,192.3v3051h30v-3051H2796.8z"/>
	<path class="st4" d="M2826.9,192.3v3051h30v-3051H2826.9z"/>
	<path class="st3" d="M2856.9,192.3v3051h30v-3051H2856.9z"/>
	<path class="st4" d="M2886.9,192.3v3051h30v-3051H2886.9z"/>
	<path class="st5" d="M2916.9,192.3v3051h30v-3051H2916.9z"/>
	<path class="st4" d="M2947,192.3v3051h30v-3051H2947z"/>
	<path class="st5" d="M2977,192.3v3051h30v-3051H2977z"/>
	<path class="st4" d="M3007,192.3v3051h30v-3051H3007z"/>
	<path class="st5" d="M3037,192.3v3051h30v-3051H3037z"/>
	<path class="st4" d="M3067,192.3v3051h30v-3051H3067z"/>
	<path class="st5" d="M3097.1,192.3v3051h30v-3051H3097.1z"/>
	<path class="st4" d="M3127.1,192.3v3051h30v-3051H3127.1z"/>
	<path class="st3" d="M3157.1,192.3v3051h30v-3051H3157.1z"/>
	<path class="st4" d="M3187.1,192.3v3051h30v-3051H3187.1z"/>
	<path class="st5" d="M3217.2,192.3v3051h30v-3051H3217.2z"/>
	<path class="st4" d="M3247.2,192.3v3051h30v-3051H3247.2z"/>
	<path class="st5" d="M3277.2,192.3v3051h30v-3051H3277.2z"/>
	<path class="st4" d="M3307.2,192.3v3051h30v-3051H3307.2z"/>
	<path class="st5" d="M3337.3,192.3v3051h30v-3051H3337.3z"/>
	<path class="st4" d="M3367.3,192.3v3051h30v-3051H3367.3z"/>
	<path class="st5" d="M3397.3,192.3v3051h30v-3051H3397.3z"/>
	<path class="st4" d="M3427.3,192.3v3051h30v-3051H3427.3z"/>
	<path class="st3" d="M3457.3,192.3v3051h30v-3051H3457.3z"/>
	<path class="st4" d="M3487.4,192.3v3051h30v-3051H3487.4z"/>
	<path class="st5" d="M3517.4,192.3v3051h30v-3051H3517.4z"/>
	<path class="st4" d="M3547.4,192.3v3051h30v-3051H3547.4z"/>
	<path class="st5" d="M3577.4,192.3v3051h30v-3051H3577.4z"/>
	<path class="st4" d="M3607.5,192.3v3051h30v-3051H3607.5z"/>
	<path class="st5" d="M3637.5,192.3v3051h30v-3051H3637.5z"/>
	<path class="st4" d="M3667.5,192.3v3051h30v-3051H3667.5z"/>
	<path class="st5" d="M3697.5,192.3v3051h30v-3051H3697.5z"/>
	<path class="st4" d="M3727.5,192.3v3051h30v-3051H3727.5z"/>
	<path class="st3" d="M3757.6,192.3v3051h30v-3051H3757.6z"/>
	<path class="st4" d="M3787.6,192.3v3051h30v-3051H3787.6z"/>
	<path class="st5" d="M3817.6,192.3v3051h30v-3051H3817.6z"/>
	<path class="st4" d="M3847.6,192.3v3051h30v-3051H3847.6z"/>
	<path class="st5" d="M3877.7,192.3v3051h30v-3051H3877.7z"/>
	<path class="st4" d="M3907.7,192.3v3051h30v-3051H3907.7z"/>
	<path class="st5" d="M3937.7,192.3v3051h30v-3051H3937.7z"/>
	<path class="st4" d="M3967.7,192.3v3051h30v-3051H3967.7z"/>
	<path class="st5" d="M3997.7,192.3v3051h30v-3051H3997.7z"/>
	<path class="st4" d="M4027.8,192.3v3051h30v-3051H4027.8z"/>
	<path class="st3" d="M4057.8,192.3v3051h30v-3051H4057.8z"/>
	<path class="st4" d="M4087.8,192.3v3051h30v-3051H4087.8z"/>
	<path class="st5" d="M4117.8,192.3v3051h30v-3051H4117.8z"/>
	<path class="st4" d="M4147.9,192.3v3051h30v-3051H4147.9z"/>
	<path class="st5" d="M4177.9,192.3v3051h30v-3051H4177.9z"/>
	<path class="st4" d="M4207.9,192.3v3051h30v-3051H4207.9z"/>
	<path class="st5" d="M4237.9,192.3v3051h30v-3051H4237.9z"/>
	<path class="st4" d="M4267.9,192.3v3051h30v-3051H4267.9z"/>
	<path class="st5" d="M4298,192.3v3051h30v-3051H4298z"/>
	<path class="st4" d="M4328,192.3v3051h30v-3051H4328z"/>
	<path class="st3" d="M4358,192.3v3051h30v-3051H4358z"/>
	<path class="st4" d="M4388,192.3v3051h30v-3051H4388z"/>
	<path class="st5" d="M4418.1,192.3v3051h30v-3051H4418.1z"/>
	<path class="st4" d="M4448.1,192.3v3051h30v-3051H4448.1z"/>
	<path class="st5" d="M4478.1,192.3v3051h30v-3051H4478.1z"/>
	<path class="st4" d="M4508.1,192.3v3051h30v-3051H4508.1z"/>
	<path class="st5" d="M4538.1,192.3v3051h30v-3051H4538.1z"/>
	<path class="st4" d="M4568.2,192.3v3051h30v-3051H4568.2z"/>
	<path class="st5" d="M4598.2,192.3v3051h30v-3051H4598.2z"/>
	<path class="st4" d="M4628.2,192.3v3051h30v-3051H4628.2z"/>
	<path class="st3" d="M4658.2,192.3v3051h30v-3051H4658.2z"/>
	<path class="st4" d="M4688.3,192.3v3051h30v-3051H4688.3z"/>
	<path class="st5" d="M4718.3,192.3v3051h30v-3051H4718.3z"/>
	<path class="st4" d="M4748.3,192.3v3051h30v-3051H4748.3z"/>
	<path class="st5" d="M4778.3,192.3v3051h30v-3051H4778.3z"/>
	<path class="st4" d="M4808.3,192.3v3051h30v-3051H4808.3z"/>
	<path class="st5" d="M4838.4,192.3v3051h30v-3051H4838.4z"/>
	<path class="st4" d="M4868.4,192.3v3051h30v-3051H4868.4z"/>
	<path class="st5" d="M4898.4,192.3v3051h30v-3051H4898.4z"/>
	<path class="st4" d="M4928.4,192.3v3051h30v-3051H4928.4z"/>
	<path class="st3" d="M4958.5,192.3v3051h30v-3051H4958.5z"/>
	<path class="st4" d="M4988.5,192.3v3051h30v-3051H4988.5z"/>
	<path class="st5" d="M5018.5,192.3v3051h30v-3051H5018.5z"/>
	<path class="st4" d="M5048.5,192.3v3051h30v-3051H5048.5z"/>
	<path class="st5" d="M5078.5,192.3v3051h30v-3051H5078.5z"/>
	<path class="st4" d="M5108.6,192.3v3051h30v-3051H5108.6z"/>
	<path class="st5" d="M5138.6,192.3v3051h30v-3051H5138.6z"/>
	<path class="st4" d="M5168.6,192.3v3051h30v-3051H5168.6z"/>
	<path class="st5" d="M5198.6,192.3v3051h30v-3051H5198.6z"/>
	<path class="st4" d="M5228.7,192.3v3051h30v-3051H5228.7z"/>
	<path class="st6" d="M1415.9,335.7v51.6h3842.8v-51.6H1415.9z"/>
	<path class="st6" d="M1989,438.9v51.6h1438.7v-51.6H1989z"/>
	<path class="st6" d="M2616.9,1109.8v51.6h1471.4v-51.6H2616.9z"/>
	<path class="st6" d="M4268.4,2709.8v51.6h871.3v-51.6H4268.4z"/>
	<path class="st7" d="M755.3,335.7h4503.4"/>
	<path class="st8" d="M1055.6,387.3h4203.1"/>
	<path class="st7" d="M1207.8,438.9h2219.9"/>
	<path class="st8" d="M1476,490.5h2462.1"/>
	<path class="st7" d="M1446,542.1h3812.7"/>
	<path class="st8" d="M1656.1,593.7h3602.6"/>
	<path class="st7" d="M1656.1,645.3h3602.6"/>
	<path class="st8" d="M1656.1,696.9h3602.6"/>
	<path class="st7" d="M1776.1,748.5h750.7"/>
	<path class="st8" d="M1828.7,800.2h7.6"/>
	<path class="st7" d="M1853.6,851.8h12.6"/>
	<path class="st8" d="M1878.6,903.4h17.6"/>
	<path class="st7" d="M1903.7,955h3355"/>
	<path class="st8" d="M1928.9,1006.6h27.5"/>
	<path class="st7" d="M1956.3,1058.2h3302.3"/>
	<path class="st8" d="M1982.1,1109.8h2106.2"/>
	<path class="st7" d="M2004.9,1161.4h2323.6"/>
	<path class="st8" d="M1986.3,1213h3272.3"/>
	<path class="st7" d="M1986.3,1264.7h1471.3"/>
	<path class="st8" d="M2016.3,1316.3h480.4"/>
	<path class="st7" d="M2076.4,1367.9h3182.2"/>
	<path class="st8" d="M2106.5,1419.5h3152.2"/>
	<path class="st7" d="M2136.5,1471.1h3122.2"/>
	<path class="st8" d="M2136.5,1522.7h3122.2"/>
	<path class="st7" d="M2190.4,1574.3h2803.8"/>
	<path class="st8" d="M2190.4,1625.9h6.2"/>
	<path class="st7" d="M2256.6,1677.5h3002.1"/>
	<path class="st8" d="M2256.6,1729.2h3002.1"/>
	<path class="st7" d="M2278.3,1780.8h1924.4"/>
	<path class="st8" d="M2371.7,1832.4h2887"/>
	<path class="st7" d="M2376.7,1884h2882"/>
	<path class="st8" d="M2376.7,1935.6h2882"/>
	<path class="st7" d="M2556.9,1987.2h2701.8"/>
	<path class="st8" d="M2556.9,2038.8h2701.8"/>
	<path class="st7" d="M2556.9,2090.4h2701.8"/>
	<path class="st8" d="M2556.9,2142h2701.8"/>
	<path class="st7" d="M2556.9,2193.7h2701.8"/>
	<path class="st8" d="M2556.9,2245.3h2701.8"/>
	<path class="st7" d="M2616.9,2296.9h2641.8"/>
	<path class="st8" d="M2616.9,2348.5h2641.8"/>
	<path class="st7" d="M2677,2400.1h2581.7"/>
	<path class="st8" d="M2677,2451.7h2581.7"/>
	<path class="st7" d="M2677,2503.3h2581.7"/>
	<path class="st8" d="M2677,2554.9h2581.7"/>
	<path class="st7" d="M2677,2606.5h2581.7"/>
	<path class="st8" d="M2774.4,2658.2h2484.3"/>
	<path class="st7" d="M2928.3,2709.8h2330.4"/>
	<path class="st8" d="M3246.3,2761.4h1893.4"/>
	<path class="st7" d="M3157.4,2813h2101.3"/>
	<path class="st8" d="M3157.4,2864.6h2101.3"/>
	<path class="st7" d="M3157.4,2916.2h2101.3"/>
	<path class="st8" d="M3451.1,2967.8h1807.6"/>
	<path class="st7" d="M4352.6,3019.4h906.1"/>
	<path class="st8" d="M4389.7,3071h869"/>
	<g class="st1">
		<text transform="matrix(1 0 0 1 309.5762 345.5264)" class="st9 st10 st11">Michael Mostwikowski 1870</text>
		<text transform="matrix(1 0 0 1 309.5762 345.5264)" class="st10 st11">Michael Mostwikowski 1870</text>
	</g>
	<path class="st7" d="M1776.1,335.7v412.9"/>
	<path class="st8" d="M1828.7,335.7v464.5"/>
	<path class="st7" d="M1853.6,335.7v516.1"/>
	<path class="st8" d="M1878.6,335.7v567.7"/>
	<path class="st7" d="M1903.7,335.7V955"/>
	<path class="st8" d="M1928.9,335.7v670.9"/>
	<path class="st7" d="M1956.3,335.7v722.6"/>
	<path class="st7" d="M1986.3,335.7v929"/>
	<path class="st8" d="M1986.3,335.7V1213"/>
	<path class="st7" d="M2004.9,335.7v825.8"/>
	<path class="st7" d="M2278.3,335.7v1445.1"/>
	<path class="st8" d="M2371.7,335.7v1496.7"/>
	<path class="st6" d="M748.7,335.7c0-3.6,2.9-6.6,6.6-6.6c3.6,0,6.6,2.9,6.6,6.6c0,3.6-2.9,6.6-6.6,6.6
		C751.7,342.2,748.7,339.3,748.7,335.7z"/>
	<g class="st1">
		<text transform="matrix(1 0 0 1 722.1729 397.1455)" class="st9 st10 st11">Eleanora Tyska 1880</text>
		<text transform="matrix(1 0 0 1 722.1729 397.1455)" class="st10 st11">Eleanora Tyska 1880</text>
	</g>
	<path class="st7" d="M1776.1,387.3v361.3"/>
	<path class="st8" d="M1828.7,387.3v412.9"/>
	<path class="st7" d="M1853.6,387.3v464.5"/>
	<path class="st8" d="M1878.6,387.3v516.1"/>
	<path class="st7" d="M1903.7,387.3V955"/>
	<path class="st8" d="M1928.9,387.3v619.3"/>
	<path class="st7" d="M1956.3,387.3v670.9"/>
	<path class="st7" d="M1986.3,387.3v877.4"/>
	<path class="st8" d="M1986.3,387.3V1213"/>
	<path class="st7" d="M2004.9,387.3v774.2"/>
	<path class="st7" d="M2278.3,387.3v1393.5"/>
	<path class="st8" d="M2371.7,387.3v1445.1"/>
	<path class="st12" d="M1049,387.3c0-3.6,2.9-6.6,6.6-6.6s6.6,2.9,6.6,6.6s-2.9,6.6-6.6,6.6S1049,390.9,1049,387.3z"/>
	<g class="st1">
		<text transform="matrix(1 0 0 1 824.3164 448.748)" class="st9 st10 st11">Steven Stachurski 1885</text>
		<text transform="matrix(1 0 0 1 824.3164 448.748)" class="st10 st11">Steven Stachurski 1885</text>
	</g>
	<path class="st6" d="M3421.1,432.3h13.2v13.2h-13.2V432.3z"/>
	<g class="st1">
		<text transform="matrix(1 0 0 1 3444.1191 448.748)" class="st9 st10 st11">1959</text>
		<text transform="matrix(1 0 0 1 3444.1191 448.748)" class="st10 st11">1959</text>
	</g>
	<path class="st8" d="M1982.1,438.9v670.9"/>
	<path class="st8" d="M2016.3,438.9v877.4"/>
	<path class="st7" d="M2076.4,438.9v929"/>
	<path class="st8" d="M2106.5,438.9v980.6"/>
	<path class="st7" d="M2136.5,438.9v1032.2"/>
	<path class="st8" d="M2190.4,438.9v1187.1"/>
	<path class="st7" d="M2190.4,438.9v1135.4"/>
	<path class="st6" d="M1201.2,438.9c0-3.6,2.9-6.6,6.6-6.6c3.6,0,6.6,2.9,6.6,6.6c0,3.6-2.9,6.6-6.6,6.6
		C1204.2,445.5,1201.2,442.5,1201.2,438.9z"/>
	<g class="st1">
		<text transform="matrix(1 0 0 1 1066.6289 500.3672)" class="st9 st10 st11">Julia Tomaszkiewicz 1894</text>
		<text transform="matrix(1 0 0 1 1066.6289 500.3672)" class="st10 st11">Julia Tomaszkiewicz 1894</text>
	</g>
	<path class="st12" d="M3931.5,483.9h13.2v13.2h-13.2V483.9z"/>
	<g class="st1">
		<text transform="matrix(1 0 0 1 3954.5625 500.3672)" class="st13 st10 st11">1976</text>
		<text transform="matrix(1 0 0 1 3954.5625 500.3672)" class="st10 st11">1976</text>
	</g>
	<path class="st8" d="M1982.1,490.5v619.3"/>
	<path class="st8" d="M2016.3,490.5v825.8"/>
	<path class="st7" d="M2076.4,490.5v877.4"/>
	<path class="st8" d="M2106.5,490.5v929"/>
	<path class="st7" d="M2136.5,490.5v980.6"/>
	<path class="st8" d="M2190.4,490.5v1135.4"/>
	<path class="st7" d="M2190.4,490.5v1083.8"/>
	<path class="st12" d="M1469.4,490.5c0-3.6,2.9-6.6,6.6-6.6c3.6,0,6.6,2.9,6.6,6.6c0,3.6-2.9,6.6-6.6,6.6
		C1472.3,497.1,1469.4,494.1,1469.4,490.5z"/>
	<g class="st1">
		<text transform="matrix(1 0 0 1 1017.1172 551.9863)" class="st9 st10 st11">Marie Tomaszkiewicz 1893</text>
		<text transform="matrix(1 0 0 1 1017.1172 551.9863)" class="st10 st11">Marie Tomaszkiewicz 1893</text>
	</g>
	<path class="st6" d="M1439.4,542.1c0-3.6,2.9-6.6,6.6-6.6s6.6,2.9,6.6,6.6s-2.9,6.6-6.6,6.6S1439.4,545.7,1439.4,542.1z"/>
	<g class="st1">
		<text transform="matrix(1 0 0 1 1268.2949 603.5879)" class="st9 st10 st11">Steven Malinowski 1900</text>
		<text transform="matrix(1 0 0 1 1268.2949 603.5879)" class="st10 st11">Steven Malinowski 1900</text>
	</g>
	<path class="st12" d="M1649.5,593.7c0-3.6,2.9-6.6,6.6-6.6c3.6,0,6.6,2.9,6.6,6.6c0,3.6-2.9,6.6-6.6,6.6
		C1652.5,600.3,1649.5,597.3,1649.5,593.7z"/>
	<g class="st1">
		<text transform="matrix(1 0 0 1 1269.2607 655.207)" class="st9 st10 st11">Pauline Malinowski 1900</text>
		<text transform="matrix(1 0 0 1 1269.2607 655.207)" class="st10 st11">Pauline Malinowski 1900</text>
	</g>
	<path class="st6" d="M1649.5,645.3c0-3.6,2.9-6.6,6.6-6.6c3.6,0,6.6,2.9,6.6,6.6c0,3.6-2.9,6.6-6.6,6.6
		C1652.5,651.9,1649.5,649,1649.5,645.3z"/>
	<g class="st1">
		<text transform="matrix(1 0 0 1 1263.3887 706.8096)" class="st9 st10 st11">Joseph Malinowski 1900</text>
		<text transform="matrix(1 0 0 1 1263.3887 706.8096)" class="st10 st11">Joseph Malinowski 1900</text>
	</g>
	<path class="st12" d="M1649.5,696.9c0-3.6,2.9-6.6,6.6-6.6c3.6,0,6.6,2.9,6.6,6.6c0,3.6-2.9,6.6-6.6,6.6
		C1652.5,703.5,1649.5,700.6,1649.5,696.9z"/>
	<g class="st1">
		<text transform="matrix(1 0 0 1 1290.4131 758.4287)" class="st9 st10 st11">Michael Mostwikowski Jr 1904</text>
		<text transform="matrix(1 0 0 1 1290.4131 758.4287)" class="st10 st11">Michael Mostwikowski Jr 1904</text>
	</g>
	<path class="st6" d="M2520.3,742h13.2v13.2h-13.2V742z"/>
	<g class="st1">
		<text transform="matrix(1 0 0 1 2543.3398 758.4287)" class="st9 st10 st11">1929</text>
		<text transform="matrix(1 0 0 1 2543.3398 758.4287)" class="st10 st11">1929</text>
	</g>
	<path class="st6" d="M1769.5,748.5c0-3.6,2.9-6.6,6.6-6.6c3.6,0,6.6,2.9,6.6,6.6c0,3.6-2.9,6.6-6.6,6.6
		C1772.5,755.1,1769.5,752.2,1769.5,748.5z"/>
	<g class="st1">
		<text transform="matrix(1 0 0 1 1414.6592 810.0303)" class="st9 st10 st11">Frank Mostwikowski 1905</text>
		<text transform="matrix(1 0 0 1 1414.6592 810.0303)" class="st10 st11">Frank Mostwikowski 1905</text>
	</g>
	<path class="st12" d="M1829.6,793.6h13.2v13.2h-13.2V793.6z"/>
	<g class="st1">
		<text transform="matrix(1 0 0 1 1852.7021 810.0303)" class="st13 st10 st11">1906</text>
		<text transform="matrix(1 0 0 1 1852.7021 810.0303)" class="st10 st11">1906</text>
	</g>
	<path class="st12" d="M1822.1,800.2c0-3.6,2.9-6.6,6.6-6.6s6.6,2.9,6.6,6.6c0,3.6-2.9,6.6-6.6,6.6S1822.1,803.8,1822.1,800.2z"/>
	<g class="st1">
		<text transform="matrix(1 0 0 1 1429.876 861.6494)" class="st9 st10 st11">Walter Mostwikowski 1906</text>
		<text transform="matrix(1 0 0 1 1429.876 861.6494)" class="st10 st11">Walter Mostwikowski 1906</text>
	</g>
	<path class="st6" d="M1859.6,845.2h13.2v13.2h-13.2V845.2z"/>
	<g class="st1">
		<text transform="matrix(1 0 0 1 1882.7012 861.6494)" class="st9 st10 st11">1907</text>
		<text transform="matrix(1 0 0 1 1882.7012 861.6494)" class="st10 st11">1907</text>
	</g>
	<path class="st6" d="M1847.1,851.8c0-3.6,2.9-6.6,6.6-6.6s6.6,2.9,6.6,6.6c0,3.6-2.9,6.6-6.6,6.6S1847.1,855.4,1847.1,851.8z"/>
	<g class="st1">
		<text transform="matrix(1 0 0 1 1448.1172 913.2539)" class="st9 st10 st11">Virginia Mostwikowski 1907</text>
		<text transform="matrix(1 0 0 1 1448.1172 913.2539)" class="st10 st11">Virginia Mostwikowski 1907</text>
	</g>
	<path class="st12" d="M1889.7,896.8h13.2V910h-13.2V896.8z"/>
	<g class="st1">
		<text transform="matrix(1 0 0 1 1912.7168 913.2539)" class="st13 st10 st11">1908</text>
		<text transform="matrix(1 0 0 1 1912.7168 913.2539)" class="st10 st11">1908</text>
	</g>
	<path class="st12" d="M1872.1,903.4c0-3.6,2.9-6.6,6.6-6.6s6.6,2.9,6.6,6.6s-2.9,6.6-6.6,6.6S1872.1,907,1872.1,903.4z"/>
	<g class="st1">
		<text transform="matrix(1 0 0 1 1495.8115 964.8711)" class="st9 st10 st11">Stella Mostwikowski 1908</text>
		<text transform="matrix(1 0 0 1 1495.8115 964.8711)" class="st10 st11">Stella Mostwikowski 1908</text>
	</g>
	<path class="st8" d="M2256.6,955v774.2"/>
	<path class="st7" d="M2256.6,955v722.6"/>
	<path class="st6" d="M1897.1,955c0-3.6,2.9-6.6,6.6-6.6c3.6,0,6.6,2.9,6.6,6.6c0,3.6-2.9,6.6-6.6,6.6
		C1900.1,961.6,1897.1,958.6,1897.1,955z"/>
	<g class="st1">
		<text transform="matrix(1 0 0 1 1496.5996 1016.4756)" class="st9 st10 st11">James Mostwikowski 1909</text>
		<text transform="matrix(1 0 0 1 1496.5996 1016.4756)" class="st10 st11">James Mostwikowski 1909</text>
	</g>
	<path class="st12" d="M1949.7,1000h13.2v13.2h-13.2V1000z"/>
	<g class="st1">
		<text transform="matrix(1 0 0 1 1972.8154 1016.4756)" class="st13 st10 st11">1910</text>
		<text transform="matrix(1 0 0 1 1972.8154 1016.4756)" class="st10 st11">1910</text>
	</g>
	<path class="st12" d="M1922.3,1006.6c0-3.6,2.9-6.6,6.6-6.6c3.6,0,6.6,2.9,6.6,6.6s-2.9,6.6-6.6,6.6
		C1925.2,1013.2,1922.3,1010.2,1922.3,1006.6z"/>
	<g class="st1">
		<text transform="matrix(1 0 0 1 1558.2236 1068.0947)" class="st9 st10 st11">Mary Mostwikowski 1910</text>
		<text transform="matrix(1 0 0 1 1558.2236 1068.0947)" class="st10 st11">Mary Mostwikowski 1910</text>
	</g>
	<path class="st7" d="M2556.9,1058.2v1135.4"/>
	<path class="st8" d="M2556.9,1058.2V2142"/>
	<path class="st6" d="M1949.7,1058.2c0-3.6,2.9-6.6,6.6-6.6c3.6,0,6.6,2.9,6.6,6.6s-2.9,6.6-6.6,6.6
		C1952.7,1064.8,1949.7,1061.8,1949.7,1058.2z"/>
	<g class="st1">
		<text transform="matrix(1 0 0 1 1620.9092 1119.6963)" class="st9 st10 st11">Martin Stachurski 1910</text>
		<text transform="matrix(1 0 0 1 1620.9092 1119.6963)" class="st10 st11">Martin Stachurski 1910</text>
	</g>
	<path class="st12" d="M4081.7,1103.2h13.2v13.2h-13.2V1103.2z"/>
	<g class="st1">
		<text transform="matrix(1 0 0 1 4104.7725 1119.6963)" class="st13 st10 st11">1981</text>
		<text transform="matrix(1 0 0 1 4104.7725 1119.6963)" class="st10 st11">1981</text>
	</g>
	<path class="st8" d="M2774.4,1109.8v1548.3"/>
	<path class="st7" d="M2928.3,1109.8v1600"/>
	<path class="st12" d="M1975.5,1109.8c0-3.6,2.9-6.6,6.6-6.6c3.6,0,6.6,2.9,6.6,6.6c0,3.6-2.9,6.6-6.6,6.6
		C1978.4,1116.4,1975.5,1113.5,1975.5,1109.8z"/>
	<g class="st1">
		<text transform="matrix(1 0 0 1 1603.376 1171.3154)" class="st9 st10 st11">Helen Mostwikowski 1911</text>
		<text transform="matrix(1 0 0 1 1603.376 1171.3154)" class="st10 st11">Helen Mostwikowski 1911</text>
	</g>
	<path class="st6" d="M4321.9,1154.8h13.2v13.2h-13.2V1154.8z"/>
	<g class="st1">
		<text transform="matrix(1 0 0 1 4344.9951 1171.3154)" class="st9 st10 st11">1989</text>
		<text transform="matrix(1 0 0 1 4344.9951 1171.3154)" class="st10 st11">1989</text>
	</g>
	<path class="st8" d="M2774.4,1161.4v1496.7"/>
	<path class="st7" d="M2928.3,1161.4v1548.3"/>
	<path class="st6" d="M1998.3,1161.4c0-3.6,2.9-6.6,6.6-6.6c3.6,0,6.6,2.9,6.6,6.6c0,3.6-2.9,6.6-6.6,6.6
		C2001.3,1168,1998.3,1165.1,1998.3,1161.4z"/>
	<g class="st1">
		<text transform="matrix(1 0 0 1 1558.2559 1222.918)" class="st9 st10 st11">Eleanor Mostwikowski 1911</text>
		<text transform="matrix(1 0 0 1 1558.2559 1222.918)" class="st10 st11">Eleanor Mostwikowski 1911</text>
	</g>
	<path class="st12" d="M1979.8,1213c0-3.6,2.9-6.6,6.6-6.6s6.6,2.9,6.6,6.6c0,3.6-2.9,6.6-6.6,6.6S1979.8,1216.7,1979.8,1213z"/>
	<g class="st1">
		<text transform="matrix(1 0 0 1 1553.3643 1274.5371)" class="st9 st10 st11">Edward Mostwikowski 1911</text>
		<text transform="matrix(1 0 0 1 1553.3643 1274.5371)" class="st10 st11">Edward Mostwikowski 1911</text>
	</g>
	<path class="st6" d="M3451.1,1258.1h13.2v13.2h-13.2V1258.1z"/>
	<g class="st1">
		<text transform="matrix(1 0 0 1 3474.1348 1274.5371)" class="st9 st10 st11">1960</text>
		<text transform="matrix(1 0 0 1 3474.1348 1274.5371)" class="st10 st11">1960</text>
	</g>
	<path class="st6" d="M1979.8,1264.7c0-3.6,2.9-6.6,6.6-6.6s6.6,2.9,6.6,6.6c0,3.6-2.9,6.6-6.6,6.6S1979.8,1268.3,1979.8,1264.7z"/>
	<g class="st1">
		<text transform="matrix(1 0 0 1 1655.4287 1326.1563)" class="st9 st10 st11">Edwin Stachurski 1912</text>
		<text transform="matrix(1 0 0 1 1655.4287 1326.1563)" class="st10 st11">Edwin Stachurski 1912</text>
	</g>
	<path class="st12" d="M2490.2,1309.7h13.2v13.2h-13.2V1309.7z"/>
	<g class="st1">
		<text transform="matrix(1 0 0 1 2513.2598 1326.1563)" class="st13 st10 st11">1928</text>
		<text transform="matrix(1 0 0 1 2513.2598 1326.1563)" class="st10 st11">1928</text>
	</g>
	<path class="st12" d="M2009.8,1316.3c0-3.6,2.9-6.6,6.6-6.6c3.6,0,6.6,2.9,6.6,6.6c0,3.6-2.9,6.6-6.6,6.6
		C2012.7,1322.9,2009.8,1319.9,2009.8,1316.3z"/>
	<g class="st1">
		<text transform="matrix(1 0 0 1 1706.4688 1377.7578)" class="st9 st10 st11">Marian Stachurski 1914</text>
		<text transform="matrix(1 0 0 1 1706.4688 1377.7578)" class="st10 st11">Marian Stachurski 1914</text>
	</g>
	<path class="st8" d="M2556.9,1367.9v877.4"/>
	<path class="st7" d="M2556.9,1367.9v722.6"/>
	<path class="st8" d="M2556.9,1367.9v670.9"/>
	<path class="st7" d="M2556.9,1367.9v619.3"/>
	<path class="st6" d="M2069.9,1367.9c0-3.6,2.9-6.6,6.6-6.6c3.6,0,6.6,2.9,6.6,6.6c0,3.6-2.9,6.6-6.6,6.6
		C2072.8,1374.5,2069.9,1371.5,2069.9,1367.9z"/>
	<g class="st1">
		<text transform="matrix(1 0 0 1 1692.1357 1429.377)" class="st9 st10 st11">Steven Stachurski Jr 1915</text>
		<text transform="matrix(1 0 0 1 1692.1357 1429.377)" class="st10 st11">Steven Stachurski Jr 1915</text>
	</g>
	<path class="st12" d="M2099.9,1419.5c0-3.6,2.9-6.6,6.6-6.6c3.6,0,6.6,2.9,6.6,6.6s-2.9,6.6-6.6,6.6
		C2102.8,1426.1,2099.9,1423.1,2099.9,1419.5z"/>
	<g class="st1">
		<text transform="matrix(1 0 0 1 1762.1895 1480.9795)" class="st9 st10 st11">Matilda Stachurski 1916</text>
		<text transform="matrix(1 0 0 1 1762.1895 1480.9795)" class="st10 st11">Matilda Stachurski 1916</text>
	</g>
	<path class="st8" d="M2616.9,1471.1v877.4"/>
	<path class="st7" d="M2616.9,1471.1v825.8"/>
	<path class="st6" d="M2129.9,1471.1c0-3.6,2.9-6.6,6.6-6.6s6.6,2.9,6.6,6.6c0,3.6-2.9,6.6-6.6,6.6S2129.9,1474.7,2129.9,1471.1z"/>
	<g class="st1">
		<text transform="matrix(1 0 0 1 1843.8545 1532.5986)" class="st9 st10 st11">Dorthy Doda 1916</text>
		<text transform="matrix(1 0 0 1 1843.8545 1532.5986)" class="st10 st11">Dorthy Doda 1916</text>
	</g>
	<path class="st12" d="M2129.9,1522.7c0-3.6,2.9-6.6,6.6-6.6s6.6,2.9,6.6,6.6c0,3.6-2.9,6.6-6.6,6.6S2129.9,1526.3,2129.9,1522.7z"
		/>
	<g class="st1">
		<text transform="matrix(1 0 0 1 1811.1055 1584.2002)" class="st9 st10 st11">Joseph Stachurski 1917</text>
		<text transform="matrix(1 0 0 1 1811.1055 1584.2002)" class="st10 st11">Joseph Stachurski 1917</text>
	</g>
	<path class="st6" d="M4987.6,1567.7h13.2v13.2h-13.2V1567.7z"/>
	<g class="st1">
		<text transform="matrix(1 0 0 1 5010.6338 1584.2002)" class="st9 st10 st11">2011</text>
		<text transform="matrix(1 0 0 1 5010.6338 1584.2002)" class="st10 st11">2011</text>
	</g>
	<path class="st8" d="M2376.7,1574.3v361.3"/>
	<path class="st7" d="M2376.7,1574.3V1884"/>
	<path class="st8" d="M2677,1574.3v877.4"/>
	<path class="st6" d="M2183.8,1574.3c0-3.6,2.9-6.6,6.6-6.6c3.6,0,6.6,2.9,6.6,6.6s-2.9,6.6-6.6,6.6
		C2186.7,1580.9,2183.8,1578,2183.8,1574.3z"/>
	<g class="st1">
		<text transform="matrix(1 0 0 1 1837.4043 1635.8203)" class="st9 st10 st11">Helen Stachurski 1917</text>
		<text transform="matrix(1 0 0 1 1837.4043 1635.8203)" class="st10 st11">Helen Stachurski 1917</text>
	</g>
	<path class="st12" d="M2190,1619.3h13.2v13.2H2190V1619.3z"/>
	<g class="st1">
		<text transform="matrix(1 0 0 1 2213.0205 1635.8203)" class="st13 st10 st11">1918</text>
		<text transform="matrix(1 0 0 1 2213.0205 1635.8203)" class="st10 st11">1918</text>
	</g>
	<path class="st12" d="M2183.8,1625.9c0-3.6,2.9-6.6,6.6-6.6c3.6,0,6.6,2.9,6.6,6.6c0,3.6-2.9,6.6-6.6,6.6
		C2186.7,1632.5,2183.8,1629.6,2183.8,1625.9z"/>
	<g class="st1">
		<text transform="matrix(1 0 0 1 1920.0537 1687.4219)" class="st9 st10 st11">Pat Koffenberg 1920</text>
		<text transform="matrix(1 0 0 1 1920.0537 1687.4219)" class="st10 st11">Pat Koffenberg 1920</text>
	</g>
	<path class="st6" d="M2250,1677.5c0-3.6,2.9-6.6,6.6-6.6s6.6,2.9,6.6,6.6c0,3.6-2.9,6.6-6.6,6.6S2250,1681.2,2250,1677.5z"/>
	<g class="st1">
		<text transform="matrix(1 0 0 1 1890.1504 1739.041)" class="st9 st10 st11">Harry Koffenberg 1920</text>
		<text transform="matrix(1 0 0 1 1890.1504 1739.041)" class="st10 st11">Harry Koffenberg 1920</text>
	</g>
	<path class="st12" d="M2250,1729.2c0-3.6,2.9-6.6,6.6-6.6s6.6,2.9,6.6,6.6c0,3.6-2.9,6.6-6.6,6.6S2250,1732.8,2250,1729.2z"/>
	<g class="st1">
		<text transform="matrix(1 0 0 1 1868.8203 1790.6426)" class="st9 st10 st11">Anne Mostwikowski 1920</text>
		<text transform="matrix(1 0 0 1 1868.8203 1790.6426)" class="st10 st11">Anne Mostwikowski 1920</text>
	</g>
	<path class="st6" d="M4196.1,1774.2h13.2v13.2h-13.2V1774.2z"/>
	<g class="st1">
		<text transform="matrix(1 0 0 1 4219.1094 1790.6426)" class="st9 st10 st11">1984</text>
		<text transform="matrix(1 0 0 1 4219.1094 1790.6426)" class="st10 st11">1984</text>
	</g>
	<path class="st7" d="M2677,1780.8v825.8"/>
	<path class="st8" d="M2677,1780.8v774.2"/>
	<path class="st7" d="M2677,1780.8v722.6"/>
	<path class="st7" d="M2677,1780.8v619.3"/>
	<path class="st8" d="M3451.1,1780.8v1187.1"/>
	<path class="st6" d="M2271.7,1780.8c0-3.6,2.9-6.6,6.6-6.6c3.6,0,6.6,2.9,6.6,6.6c0,3.6-2.9,6.6-6.6,6.6
		C2274.6,1787.4,2271.7,1784.4,2271.7,1780.8z"/>
	<g class="st1">
		<text transform="matrix(1 0 0 1 1930.8467 1842.2627)" class="st9 st10 st11">Casimir Mostwikowski 1923</text>
		<text transform="matrix(1 0 0 1 1930.8467 1842.2627)" class="st10 st11">Casimir Mostwikowski 1923</text>
	</g>
	<path class="st7" d="M3157.4,1832.4v1083.8"/>
	<path class="st8" d="M3157.4,1832.4v1032.2"/>
	<path class="st7" d="M3157.4,1832.4V2813"/>
	<path class="st12" d="M2365.1,1832.4c0-3.6,2.9-6.6,6.6-6.6c3.6,0,6.6,2.9,6.6,6.6c0,3.6-2.9,6.6-6.6,6.6
		C2368,1839,2365.1,1836,2365.1,1832.4z"/>
	<g class="st1">
		<text transform="matrix(1 0 0 1 1997.4736 1893.8643)" class="st9 st10 st11">Denise Stachurski 1924</text>
		<text transform="matrix(1 0 0 1 1997.4736 1893.8643)" class="st10 st11">Denise Stachurski 1924</text>
	</g>
	<path class="st6" d="M2370.1,1884c0-3.6,2.9-6.6,6.6-6.6c3.6,0,6.6,2.9,6.6,6.6c0,3.6-2.9,6.6-6.6,6.6
		C2373,1890.6,2370.1,1887.6,2370.1,1884z"/>
	<g class="st1">
		<text transform="matrix(1 0 0 1 2016.083 1945.4834)" class="st9 st10 st11">David Stachurski 1924</text>
		<text transform="matrix(1 0 0 1 2016.083 1945.4834)" class="st10 st11">David Stachurski 1924</text>
	</g>
	<path class="st12" d="M2370.1,1935.6c0-3.6,2.9-6.6,6.6-6.6c3.6,0,6.6,2.9,6.6,6.6s-2.9,6.6-6.6,6.6
		C2373,1942.2,2370.1,1939.2,2370.1,1935.6z"/>
	<g class="st1">
		<text transform="matrix(1 0 0 1 2175.5742 1997.0879)" class="st9 st10 st11">Wayne Stachurski 1930</text>
		<text transform="matrix(1 0 0 1 2175.5742 1997.0879)" class="st10 st11">Wayne Stachurski 1930</text>
	</g>
	<path class="st6" d="M2550.3,1987.2c0-3.6,2.9-6.6,6.6-6.6c3.6,0,6.6,2.9,6.6,6.6s-2.9,6.6-6.6,6.6
		C2553.2,1993.8,2550.3,1990.9,2550.3,1987.2z"/>
	<g class="st1">
		<text transform="matrix(1 0 0 1 2164.6045 2048.7051)" class="st9 st10 st11">Richard Stachurski 1930</text>
		<text transform="matrix(1 0 0 1 2164.6045 2048.7051)" class="st10 st11">Richard Stachurski 1930</text>
	</g>
	<path class="st12" d="M2550.3,2038.8c0-3.6,2.9-6.6,6.6-6.6c3.6,0,6.6,2.9,6.6,6.6c0,3.6-2.9,6.6-6.6,6.6
		C2553.2,2045.4,2550.3,2042.5,2550.3,2038.8z"/>
	<g class="st1">
		<text transform="matrix(1 0 0 1 2151.4619 2100.3242)" class="st9 st10 st11">Kenneth Stachurski 1930</text>
		<text transform="matrix(1 0 0 1 2151.4619 2100.3242)" class="st10 st11">Kenneth Stachurski 1930</text>
	</g>
	<path class="st6" d="M2550.3,2090.4c0-3.6,2.9-6.6,6.6-6.6c3.6,0,6.6,2.9,6.6,6.6c0,3.6-2.9,6.6-6.6,6.6
		C2553.2,2097,2550.3,2094.1,2550.3,2090.4z"/>
	<g class="st1">
		<text transform="matrix(1 0 0 1 2252.7217 2151.9287)" class="st9 st10 st11">Kathy Weber 1930</text>
		<text transform="matrix(1 0 0 1 2252.7217 2151.9287)" class="st10 st11">Kathy Weber 1930</text>
	</g>
	<path class="st12" d="M2550.3,2142c0-3.6,2.9-6.6,6.6-6.6c3.6,0,6.6,2.9,6.6,6.6c0,3.6-2.9,6.6-6.6,6.6
		C2553.2,2148.6,2550.3,2145.7,2550.3,2142z"/>
	<g class="st1">
		<text transform="matrix(1 0 0 1 2265.7646 2203.5449)" class="st9 st10 st11">Jerry Weber 1930</text>
		<text transform="matrix(1 0 0 1 2265.7646 2203.5449)" class="st10 st11">Jerry Weber 1930</text>
	</g>
	<path class="st6" d="M2550.3,2193.7c0-3.6,2.9-6.6,6.6-6.6c3.6,0,6.6,2.9,6.6,6.6c0,3.6-2.9,6.6-6.6,6.6
		C2553.2,2200.2,2550.3,2197.3,2550.3,2193.7z"/>
	<g class="st1">
		<text transform="matrix(1 0 0 1 2191.707 2255.1494)" class="st9 st10 st11">Glenn Stachurski 1930</text>
		<text transform="matrix(1 0 0 1 2191.707 2255.1494)" class="st10 st11">Glenn Stachurski 1930</text>
	</g>
	<path class="st12" d="M2550.3,2245.3c0-3.6,2.9-6.6,6.6-6.6c3.6,0,6.6,2.9,6.6,6.6s-2.9,6.6-6.6,6.6
		C2553.2,2251.9,2550.3,2248.9,2550.3,2245.3z"/>
	<g class="st1">
		<text transform="matrix(1 0 0 1 2310.3232 2306.7666)" class="st9 st10 st11">Marilyn Smith 1932</text>
		<text transform="matrix(1 0 0 1 2310.3232 2306.7666)" class="st10 st11">Marilyn Smith 1932</text>
	</g>
	<path class="st6" d="M2610.3,2296.9c0-3.6,2.9-6.6,6.6-6.6c3.6,0,6.6,2.9,6.6,6.6s-2.9,6.6-6.6,6.6
		C2613.3,2303.5,2610.3,2300.5,2610.3,2296.9z"/>
	<g class="st1">
		<text transform="matrix(1 0 0 1 2319.75 2358.3711)" class="st9 st10 st11">Joyce Smith 1932</text>
		<text transform="matrix(1 0 0 1 2319.75 2358.3711)" class="st10 st11">Joyce Smith 1932</text>
	</g>
	<path class="st12" d="M2610.3,2348.5c0-3.6,2.9-6.6,6.6-6.6c3.6,0,6.6,2.9,6.6,6.6c0,3.6-2.9,6.6-6.6,6.6
		C2613.3,2355.1,2610.3,2352.1,2610.3,2348.5z"/>
	<g class="st1">
		<text transform="matrix(1 0 0 1 2292.9023 2409.9902)" class="st9 st10 st11">Wayne Miskiewicz 1934</text>
		<text transform="matrix(1 0 0 1 2292.9023 2409.9902)" class="st10 st11">Wayne Miskiewicz 1934</text>
	</g>
	<path class="st6" d="M2670.4,2400.1c0-3.6,2.9-6.6,6.6-6.6s6.6,2.9,6.6,6.6c0,3.6-2.9,6.6-6.6,6.6S2670.4,2403.7,2670.4,2400.1z"/>
	<g class="st1">
		<text transform="matrix(1 0 0 1 2324.3975 2461.5918)" class="st9 st10 st11">Mark Stachurski 1934</text>
		<text transform="matrix(1 0 0 1 2324.3975 2461.5918)" class="st10 st11">Mark Stachurski 1934</text>
	</g>
	<path class="st12" d="M2670.4,2451.7c0-3.6,2.9-6.6,6.6-6.6s6.6,2.9,6.6,6.6c0,3.6-2.9,6.6-6.6,6.6S2670.4,2455.4,2670.4,2451.7z"
		/>
	<g class="st1">
		<text transform="matrix(1 0 0 1 2284.4092 2513.2109)" class="st9 st10 st11">Cynthia Miskiewicz 1934</text>
		<text transform="matrix(1 0 0 1 2284.4092 2513.2109)" class="st10 st11">Cynthia Miskiewicz 1934</text>
	</g>
	<path class="st6" d="M2670.4,2503.3c0-3.6,2.9-6.6,6.6-6.6s6.6,2.9,6.6,6.6c0,3.6-2.9,6.6-6.6,6.6S2670.4,2507,2670.4,2503.3z"/>
	<g class="st1">
		<text transform="matrix(1 0 0 1 2311.2559 2564.8135)" class="st9 st10 st11">Bryan Miskiewicz 1934</text>
		<text transform="matrix(1 0 0 1 2311.2559 2564.8135)" class="st10 st11">Bryan Miskiewicz 1934</text>
	</g>
	<path class="st12" d="M2670.4,2554.9c0-3.6,2.9-6.6,6.6-6.6s6.6,2.9,6.6,6.6c0,3.6-2.9,6.6-6.6,6.6S2670.4,2558.6,2670.4,2554.9z"
		/>
	<g class="st1">
		<text transform="matrix(1 0 0 1 2288.3008 2616.4326)" class="st9 st10 st11">Beverly Miskiewicz 1934</text>
		<text transform="matrix(1 0 0 1 2288.3008 2616.4326)" class="st10 st11">Beverly Miskiewicz 1934</text>
	</g>
	<path class="st6" d="M2670.4,2606.5c0-3.6,2.9-6.6,6.6-6.6s6.6,2.9,6.6,6.6s-2.9,6.6-6.6,6.6S2670.4,2610.2,2670.4,2606.5z"/>
	<g class="st1">
		<text transform="matrix(1 0 0 1 2450.7666 2668.0342)" class="st9 st10 st11">Martin Stark Jr 1937</text>
		<text transform="matrix(1 0 0 1 2450.7666 2668.0342)" class="st10 st11">Martin Stark Jr 1937</text>
	</g>
	<path class="st12" d="M2767.8,2658.2c0-3.6,2.9-6.6,6.6-6.6c3.6,0,6.6,2.9,6.6,6.6s-2.9,6.6-6.6,6.6
		C2770.8,2664.7,2767.8,2661.8,2767.8,2658.2z"/>
	<g class="st1">
		<text transform="matrix(1 0 0 1 2630.2656 2719.6533)" class="st9 st10 st11">Dennis Stark 1942</text>
		<text transform="matrix(1 0 0 1 2630.2656 2719.6533)" class="st10 st11">Dennis Stark 1942</text>
	</g>
	<path class="st7" d="M4352.6,2709.8v309.7"/>
	<path class="st8" d="M4389.7,2709.8V3071"/>
	<path class="st6" d="M2921.7,2709.8c0-3.6,2.9-6.6,6.6-6.6s6.6,2.9,6.6,6.6c0,3.6-2.9,6.6-6.6,6.6S2921.7,2713.4,2921.7,2709.8z"/>
	<g class="st1">
		<text transform="matrix(1 0 0 1 2870.1182 2771.2559)" class="st9 st10 st11">Simone Maechler 1952</text>
		<text transform="matrix(1 0 0 1 2870.1182 2771.2559)" class="st10 st11">Simone Maechler 1952</text>
	</g>
	<path class="st12" d="M5133.1,2754.8h13.2v13.2h-13.2V2754.8z"/>
	<g class="st1">
		<text transform="matrix(1 0 0 1 5156.1455 2771.2559)" class="st13 st10 st11">2016</text>
		<text transform="matrix(1 0 0 1 5156.1455 2771.2559)" class="st10 st11">2016</text>
	</g>
	<path class="st7" d="M4352.6,2761.4v258.1"/>
	<path class="st8" d="M4389.7,2761.4V3071"/>
	<path class="st12" d="M3239.7,2761.4c0-3.6,2.9-6.6,6.6-6.6c3.6,0,6.6,2.9,6.6,6.6c0,3.6-2.9,6.6-6.6,6.6
		C3242.7,2768,3239.7,2765,3239.7,2761.4z"/>
	<g class="st1">
		<text transform="matrix(1 0 0 1 2758.0986 2822.875)" class="st9 st10 st11">Myla Mostwikowski 1950</text>
		<text transform="matrix(1 0 0 1 2758.0986 2822.875)" class="st10 st11">Myla Mostwikowski 1950</text>
	</g>
	<path class="st6" d="M3150.8,2813c0-3.6,2.9-6.6,6.6-6.6c3.6,0,6.6,2.9,6.6,6.6c0,3.6-2.9,6.6-6.6,6.6
		C3153.8,2819.6,3150.8,2816.6,3150.8,2813z"/>
	<g class="st1">
		<text transform="matrix(1 0 0 1 2744.2969 2874.4941)" class="st9 st10 st11">Kevin Mostwikowski 1950</text>
		<text transform="matrix(1 0 0 1 2744.2969 2874.4941)" class="st10 st11">Kevin Mostwikowski 1950</text>
	</g>
	<path class="st12" d="M3150.8,2864.6c0-3.6,2.9-6.6,6.6-6.6c3.6,0,6.6,2.9,6.6,6.6c0,3.6-2.9,6.6-6.6,6.6
		C3153.8,2871.2,3150.8,2868.2,3150.8,2864.6z"/>
	<g class="st1">
		<text transform="matrix(1 0 0 1 2738.2012 2926.0957)" class="st9 st10 st11">Glenn Mostwikowski 1950</text>
		<text transform="matrix(1 0 0 1 2738.2012 2926.0957)" class="st10 st11">Glenn Mostwikowski 1950</text>
	</g>
	<path class="st6" d="M3150.8,2916.2c0-3.6,2.9-6.6,6.6-6.6c3.6,0,6.6,2.9,6.6,6.6c0,3.6-2.9,6.6-6.6,6.6
		C3153.8,2922.8,3150.8,2919.9,3150.8,2916.2z"/>
	<g class="st1">
		<text transform="matrix(1 0 0 1 3095.7197 2977.7148)" class="st9 st10 st11">Mark Miskiewicz 1959</text>
		<text transform="matrix(1 0 0 1 3095.7197 2977.7148)" class="st10 st11">Mark Miskiewicz 1959</text>
	</g>
	<path class="st12" d="M3444.5,2967.8c0-3.6,2.9-6.6,6.6-6.6c3.6,0,6.6,2.9,6.6,6.6s-3,6.6-6.6,6.6
		C3447.4,2974.4,3444.5,2971.5,3444.5,2967.8z"/>
	<g class="st1">
		<text transform="matrix(1 0 0 1 4049.4209 3029.3174)" class="st9 st10 st11">Nicolas Stark 1989</text>
		<text transform="matrix(1 0 0 1 4049.4209 3029.3174)" class="st10 st11">Nicolas Stark 1989</text>
	</g>
	<path class="st6" d="M4346,3019.4c0-3.6,2.9-6.6,6.6-6.6c3.6,0,6.6,2.9,6.6,6.6s-2.9,6.6-6.6,6.6
		C4349,3026,4346,3023.1,4346,3019.4z"/>
	<g class="st1">
		<text transform="matrix(1 0 0 1 4066.3125 3080.9365)" class="st9 st10 st11">Madeline Stark 1991</text>
		<text transform="matrix(1 0 0 1 4066.3125 3080.9365)" class="st10 st11">Madeline Stark 1991</text>
	</g>
	<path class="st12" d="M4383.1,3071c0-3.6,3-6.6,6.6-6.6s6.6,2.9,6.6,6.6c0,3.6-3,6.6-6.6,6.6S4383.1,3074.7,4383.1,3071z"/>
</g>
<g id="Layer_4">
	<rect class="st2" width="5468" height="3384"/>
</g>
<g id="Layer_2">
	<path class="st14" d="M631.8,0v3311.5h31.4V0H631.8z"/>
	<path class="st15" d="M663.1,0v3311.5h31.4V0H663.1z"/>
	<path class="st16" d="M694.5,0v3311.5h31.4V0H694.5z"/>
	<path class="st15" d="M725.9,0v3311.5h31.4V0H725.9z"/>
	<path class="st16" d="M757.3,0v3311.5h31.4V0H757.3z"/>
	<path class="st15" d="M788.7,0v3311.5h31.4V0H788.7z"/>
	<path class="st16" d="M820.1,0v3311.5h31.4V0H820.1z"/>
	<path class="st15" d="M851.5,0v3311.5h31.4V0H851.5z"/>
	<path class="st16" d="M882.9,0v3311.5h31.4V0H882.9z"/>
	<path class="st15" d="M914.3,0v3311.5h31.4V0H914.3z"/>
	<path class="st14" d="M945.6,0v3311.5H977V0H945.6z"/>
	<path class="st15" d="M977,0v3311.5h31.4V0H977z"/>
	<path class="st16" d="M1008.4,0v3311.5h31.4V0H1008.4z"/>
	<path class="st15" d="M1039.8,0v3311.5h31.4V0H1039.8z"/>
	<path class="st16" d="M1071.2,0v3311.5h31.4V0H1071.2z"/>
	<path class="st15" d="M1102.6,0v3311.5h31.4V0H1102.6z"/>
	<path class="st16" d="M1134,0v3311.5h31.4V0H1134z"/>
	<path class="st15" d="M1165.4,0v3311.5h31.4V0H1165.4z"/>
	<path class="st16" d="M1196.7,0v3311.5h31.4V0H1196.7z"/>
	<path class="st15" d="M1228.1,0v3311.5h31.4V0H1228.1z"/>
	<path class="st14" d="M1259.5,0v3311.5h31.4V0H1259.5z"/>
	<path class="st15" d="M1290.9,0v3311.5h31.4V0H1290.9z"/>
	<path class="st16" d="M1322.3,0v3311.5h31.4V0H1322.3z"/>
	<path class="st15" d="M1353.7,0v3311.5h31.4V0H1353.7z"/>
	<path class="st16" d="M1385.1,0v3311.5h31.4V0H1385.1z"/>
	<path class="st15" d="M1416.5,0v3311.5h31.4V0H1416.5z"/>
	<path class="st16" d="M1447.9,0v3311.5h31.4V0H1447.9z"/>
	<path class="st15" d="M1479.2,0v3311.5h31.4V0H1479.2z"/>
	<path class="st16" d="M1510.6,0v3311.5h31.4V0H1510.6z"/>
	<path class="st15" d="M1542,0v3311.5h31.4V0H1542z"/>
	<path class="st14" d="M1573.4,0v3311.5h31.4V0H1573.4z"/>
	<path class="st15" d="M1604.8,0v3311.5h31.4V0H1604.8z"/>
	<path class="st16" d="M1636.2,0v3311.5h31.4V0H1636.2z"/>
	<path class="st15" d="M1667.6,0v3311.5h31.4V0H1667.6z"/>
	<path class="st16" d="M1699,0v3311.5h31.4V0H1699z"/>
	<path class="st15" d="M1730.4,0v3311.5h31.4V0H1730.4z"/>
	<path class="st16" d="M1761.7,0v3311.5h31.4V0H1761.7z"/>
	<path class="st15" d="M1793.1,0v3311.5h31.4V0H1793.1z"/>
	<path class="st16" d="M1824.5,0v3383.1h31.4V0H1824.5z"/>
	<path class="st15" d="M1855.9,0v3383.1h31.4V0H1855.9z"/>
	<path class="st14" d="M1887.3,0v3383.1h31.4V0H1887.3z"/>
	<path class="st15" d="M1918.7,0v3383.1h31.4V0H1918.7z"/>
	<path class="st16" d="M1950.1,0v3383.1h31.4V0H1950.1z"/>
	<path class="st15" d="M1981.5,0v3383.1h31.4V0H1981.5z"/>
	<path class="st16" d="M2012.9,0v3383.1h31.4V0H2012.9z"/>
	<path class="st15" d="M2044.2,0v3383.1h31.4V0H2044.2z"/>
	<path class="st16" d="M2075.6,0v3383.1h31.4V0H2075.6z"/>
	<path class="st15" d="M2107,0v3383.1h31.4V0H2107z"/>
	<path class="st16" d="M2138.4,0v3383.1h31.4V0H2138.4z"/>
	<path class="st15" d="M2169.8,0v3383.1h31.4V0H2169.8z"/>
	<path class="st14" d="M2201.2,0v3383.1h31.4V0H2201.2z"/>
	<path class="st15" d="M2232.6,0v3383.1h31.4V0H2232.6z"/>
	<path class="st16" d="M2264,0v3383.1h31.4V0H2264z"/>
	<path class="st15" d="M2295.4,0v3383.1h31.4V0H2295.4z"/>
	<path class="st16" d="M2326.7,0v3383.1h31.4V0H2326.7z"/>
	<path class="st15" d="M2358.1,0v3383.1h31.4V0H2358.1z"/>
	<path class="st16" d="M2389.5,0v3383.1h31.4V0H2389.5z"/>
	<path class="st15" d="M2420.9,0v3383.1h31.4V0H2420.9z"/>
	<path class="st16" d="M2452.3,0v3383.1h31.4V0H2452.3z"/>
	<path class="st15" d="M2483.7,0v3383.1h31.4V0H2483.7z"/>
	<path class="st14" d="M2515.1,0v3383.1h31.4V0H2515.1z"/>
	<path class="st15" d="M2546.5,0v3383.1h31.4V0H2546.5z"/>
	<path class="st16" d="M2577.8,0v3383.1h31.4V0H2577.8z"/>
	<path class="st15" d="M2609.2,0v3383.1h31.4V0H2609.2z"/>
	<path class="st16" d="M2640.6,0v3383.1h31.4V0H2640.6z"/>
	<path class="st15" d="M2672,0v3383.1h31.4V0H2672z"/>
	<path class="st16" d="M2703.4,0v3383.1h31.4V0H2703.4z"/>
	<path class="st15" d="M2734.8,0v3383.1h31.4V0H2734.8z"/>
	<path class="st16" d="M2766.2,0v3383.1h31.4V0H2766.2z"/>
	<path class="st15" d="M2797.6,0v3383.1h31.4V0H2797.6z"/>
	<path class="st14" d="M2829,0v3383.1h31.4V0H2829z"/>
	<path class="st15" d="M2860.3,0v3383.1h31.4V0H2860.3z"/>
	<path class="st16" d="M2891.7,0v3383.1h31.4V0H2891.7z"/>
	<path class="st15" d="M2923.1,0v3383.1h31.4V0H2923.1z"/>
	<path class="st16" d="M2954.5,0v3383.1h31.4V0H2954.5z"/>
	<path class="st15" d="M2985.9,0v3383.1h31.4V0H2985.9z"/>
	<path class="st16" d="M3017.3,0v3383.1h31.4V0H3017.3z"/>
	<path class="st15" d="M3048.7,0v3383.1h31.4V0H3048.7z"/>
	<path class="st16" d="M3080.1,0v3383.1h31.4V0H3080.1z"/>
	<path class="st15" d="M3111.5,0v3383.1h31.4V0H3111.5z"/>
	<path class="st14" d="M3142.8,0v3383.1h31.4V0H3142.8z"/>
	<path class="st15" d="M3174.2,0v3383.1h31.4V0H3174.2z"/>
	<path class="st16" d="M3205.6,0v3383.1h31.4V0H3205.6z"/>
	<path class="st15" d="M3237,0v3383.1h31.4V0H3237z"/>
	<path class="st16" d="M3268.4,0v3383.1h31.4V0H3268.4z"/>
	<path class="st15" d="M3299.8,0v3383.1h31.4V0H3299.8z"/>
	<path class="st16" d="M3331.2,0v3383.1h31.4V0H3331.2z"/>
	<path class="st15" d="M3362.6,0v3383.1h31.4V0H3362.6z"/>
	<path class="st16" d="M3394,0v3383.1h31.4V0H3394z"/>
	<path class="st15" d="M3425.3,0v3383.1h31.4V0H3425.3z"/>
	<path class="st14" d="M3456.7,0v3383.1h31.4V0H3456.7z"/>
	<path class="st15" d="M3488.1,0v3383.1h31.4V0H3488.1z"/>
	<path class="st16" d="M3519.5,0v3383.1h31.4V0H3519.5z"/>
	<path class="st15" d="M3550.9,0v3383.1h31.4V0H3550.9z"/>
	<path class="st16" d="M3582.3,0v3383.1h31.4V0H3582.3z"/>
	<path class="st15" d="M3613.7,0v3383.1h31.4V0H3613.7z"/>
	<path class="st16" d="M3645.1,0v3383.1h31.4V0H3645.1z"/>
	<path class="st15" d="M3676.4,0v3383.1h31.4V0H3676.4z"/>
	<path class="st16" d="M3707.8,0v3383.1h31.4V0H3707.8z"/>
	<path class="st15" d="M3739.2,0v3383.1h31.4V0H3739.2z"/>
	<path class="st14" d="M3770.6,0v3383.1h31.4V0H3770.6z"/>
	<path class="st15" d="M3802,0v3383.1h31.4V0H3802z"/>
	<path class="st16" d="M3833.4,0v3383.1h31.4V0H3833.4z"/>
	<path class="st15" d="M3864.8,0v3383.1h31.4V0H3864.8z"/>
	<path class="st16" d="M3896.2,0v3383.1h31.4V0H3896.2z"/>
	<path class="st15" d="M3927.6,0v3383.1h31.4V0H3927.6z"/>
	<path class="st16" d="M3958.9,0v3383.1h31.4V0H3958.9z"/>
	<path class="st15" d="M3990.3,0v3383.1h31.4V0H3990.3z"/>
	<path class="st16" d="M4021.7,0v3383.1h31.4V0H4021.7z"/>
	<path class="st15" d="M4053.1,0v3383.1h31.4V0H4053.1z"/>
	<path class="st14" d="M4084.5,0v3383.1h31.4V0H4084.5z"/>
	<path class="st15" d="M4115.9,0v3383.1h31.4V0H4115.9z"/>
	<path class="st16" d="M4147.3,0v3383.1h31.4V0H4147.3z"/>
	<path class="st15" d="M4178.7,0v3383.1h31.4V0H4178.7z"/>
	<path class="st16" d="M4210.1,0v3383.1h31.4V0H4210.1z"/>
	<path class="st15" d="M4241.4,0v3383.1h31.4V0H4241.4z"/>
	<path class="st16" d="M4272.8,0v3383.1h31.4V0H4272.8z"/>
	<path class="st15" d="M4304.2,0v3383.1h31.4V0H4304.2z"/>
	<path class="st16" d="M4335.6,0v3383.1h31.4V0H4335.6z"/>
	<path class="st15" d="M4367,0v3383.1h31.4V0H4367z"/>
	<path class="st14" d="M4398.4,0v3383.1h31.4V0H4398.4z"/>
	<path class="st15" d="M4429.8,0v3383.1h31.4V0H4429.8z"/>
	<path class="st16" d="M4461.2,0v3383.1h31.4V0H4461.2z"/>
	<path class="st15" d="M4492.6,0v3383.1h31.4V0H4492.6z"/>
	<path class="st16" d="M4523.9,0v3383.1h31.4V0H4523.9z"/>
	<path class="st15" d="M4555.3,0v3383.1h31.4V0H4555.3z"/>
	<path class="st16" d="M4586.7,0v3383.1h31.4V0H4586.7z"/>
	<path class="st15" d="M4618.1,0v3383.1h31.4V0H4618.1z"/>
	<path class="st16" d="M4649.5,0v3383.1h31.4V0H4649.5z"/>
	<path class="st15" d="M4680.9,0v3383.1h31.4V0H4680.9z"/>
	<path class="st14" d="M4712.3,0v3383.1h31.4V0H4712.3z"/>
	<path class="st15" d="M4743.7,0v3383.1h31.4V0H4743.7z"/>
	<path class="st16" d="M4775.1,0v3383.1h31.4V0H4775.1z"/>
	<path class="st15" d="M4806.4,0v3383.1h31.4V0H4806.4z"/>
	<path class="st16" d="M4837.8,0v3383.1h31.4V0H4837.8z"/>
	<path class="st15" d="M4869.2,0v3383.1h31.4V0H4869.2z"/>
	<path class="st16" d="M4900.6,0v3383.1h31.4V0H4900.6z"/>
	<path class="st15" d="M4932,0v3383.1h31.4V0H4932z"/>
	<path class="st16" d="M4963.4,0v3383.1h31.4V0H4963.4z"/>
	<path class="st15" d="M4994.8,0v3383.1h31.4V0H4994.8z"/>
	<path class="st14" d="M5026.2,0v3383.1h31.4V0H5026.2z"/>
	<path class="st15" d="M5057.5,0v3383.1h31.4V0H5057.5z"/>
	<path class="st16" d="M5088.9,0v3383.1h31.4V0H5088.9z"/>
	<path class="st15" d="M5120.3,0v3383.1h31.4V0H5120.3z"/>
	<path class="st16" d="M5151.7,0v3383.1h31.4V0H5151.7z"/>
	<path class="st15" d="M5183.1,0v3383.1h31.4V0H5183.1z"/>
	<path class="st16" d="M5214.5,0v3383.1h31.4V0H5214.5z"/>
	<path class="st15" d="M5245.9,0v3383.1h31.4V0H5245.9z"/>
	<path class="st16" d="M5277.3,0v3383.1h31.4V0H5277.3z"/>
	<path class="st15" d="M5308.7,0v3383.1h31.4V0H5308.7z"/>
	<path class="st17" d="M1322.4,271.9v54H5340v-54H1322.4z"/>
	<path class="st17" d="M1921.5,379.8v54h1504.2v-54H1921.5z"/>
	<path class="st17" d="M2578,1081.3v54h1538.4v-54H2578z"/>
	<path class="st17" d="M4304.7,2754v54h910.9v-54H4304.7z"/>
	<path class="st18" d="M631.8,271.9H5340"/>
	<path class="st19" d="M945.6,325.9H5340"/>
	<path class="st18" d="M1104.8,379.8h2320.9"/>
	<path class="st19" d="M1385.2,433.8h2574.2"/>
	<path class="st18" d="M1353.8,487.7H5340"/>
	<path class="st19" d="M1573.5,541.7H5340"/>
	<path class="st18" d="M1573.5,595.6H5340"/>
	<path class="st19" d="M1573.5,649.6H5340"/>
	<path class="st18" d="M1699,703.6h784.9"/>
	<path class="st19" d="M1753.9,757.5h7.9"/>
	<path class="st18" d="M1780.1,811.5h13.2"/>
	<path class="st19" d="M1806.2,865.4h18.4"/>
	<path class="st18" d="M1832.4,919.4H5340"/>
	<path class="st19" d="M1858.7,973.4h28.7"/>
	<path class="st18" d="M1887.4,1027.3H5340"/>
	<path class="st19" d="M1914.3,1081.3h2202.1"/>
	<path class="st18" d="M1938.2,1135.2h2429.3"/>
	<path class="st19" d="M1918.8,1189.2H5340"/>
	<path class="st18" d="M1918.8,1243.2h1538.3"/>
	<path class="st19" d="M1950.2,1297.1h502.3"/>
	<path class="st18" d="M2013,1351.1H5340"/>
	<path class="st19" d="M2044.4,1405H5340"/>
	<path class="st18" d="M2075.7,1459H5340"/>
	<path class="st19" d="M2075.7,1513H5340"/>
	<path class="st18" d="M2132.1,1566.9h2931.4"/>
	<path class="st19" d="M2132.1,1620.9h6.5"/>
	<path class="st18" d="M2201.3,1674.8H5340"/>
	<path class="st19" d="M2201.3,1728.8H5340"/>
	<path class="st18" d="M2224,1782.8h2012"/>
	<path class="st19" d="M2321.6,1836.7H5340"/>
	<path class="st18" d="M2326.9,1890.7H5340"/>
	<path class="st19" d="M2326.9,1944.6H5340"/>
	<path class="st18" d="M2515.3,1998.6H5340"/>
	<path class="st19" d="M2515.3,2052.6H5340"/>
	<path class="st18" d="M2515.3,2106.5H5340"/>
	<path class="st19" d="M2515.3,2160.5H5340"/>
	<path class="st18" d="M2515.3,2214.4H5340"/>
	<path class="st19" d="M2515.3,2268.4H5340"/>
	<path class="st18" d="M2578,2322.4h2762"/>
	<path class="st19" d="M2578,2376.3h2762"/>
	<path class="st18" d="M2640.9,2430.3H5340"/>
	<path class="st19" d="M2640.9,2484.2H5340"/>
	<path class="st18" d="M2640.9,2538.2H5340"/>
	<path class="st19" d="M2640.9,2592.2H5340"/>
	<path class="st18" d="M2640.9,2646.1H5340"/>
	<path class="st19" d="M2742.7,2700.1H5340"/>
	<path class="st18" d="M2903.6,2754H5340"/>
	<path class="st19" d="M3236.1,2808h1979.5"/>
	<path class="st18" d="M3143.2,2862H5340"/>
	<path class="st19" d="M3143.2,2915.9H5340"/>
	<path class="st18" d="M3143.2,2969.9H5340"/>
	<path class="st19" d="M3450.2,3023.8H5340"/>
	<path class="st18" d="M4392.7,3077.8H5340"/>
	<path class="st19" d="M4431.5,3131.8H5340"/>
	<g>
		<text transform="matrix(1 0 0 1 165.7193 282.2148)" class="st9 st10 st20">Michael Mostwikowski 1870</text>
		<text transform="matrix(1 0 0 1 165.7193 282.2148)" class="st10 st20">Michael Mostwikowski 1870</text>
	</g>
	<path class="st18" d="M1699,271.9v431.7"/>
	<path class="st19" d="M1753.9,271.9v485.6"/>
	<path class="st18" d="M1780.1,271.9v539.6"/>
	<path class="st19" d="M1806.2,271.9v593.6"/>
	<path class="st18" d="M1832.4,271.9v647.5"/>
	<path class="st19" d="M1858.7,271.9v701.5"/>
	<path class="st18" d="M1887.4,271.9v755.4"/>
	<path class="st18" d="M1918.8,271.9v971.3"/>
	<path class="st19" d="M1918.8,271.9v917.3"/>
	<path class="st18" d="M1938.2,271.9v863.4"/>
	<path class="st18" d="M2224,271.9v1510.9"/>
	<path class="st19" d="M2321.6,271.9v1564.8"/>
	<path class="st17" d="M624.9,271.9c0-3.8,3.1-6.9,6.9-6.9s6.9,3.1,6.9,6.9s-3.1,6.9-6.9,6.9S624.9,275.7,624.9,271.9z"/>
	<g>
		<text transform="matrix(1 0 0 1 597.0923 336.1679)" class="st21 st10 st20">Eleanora Tyska 1880</text>
		<text transform="matrix(1 0 0 1 597.0923 336.1679)" class="st22 st10 st20">Eleanora Tyska 1880</text>
	</g>
	<path class="st18" d="M1699,325.9v377.7"/>
	<path class="st19" d="M1753.9,325.9v431.7"/>
	<path class="st18" d="M1780.1,325.9v485.6"/>
	<path class="st19" d="M1806.2,325.9v539.6"/>
	<path class="st18" d="M1832.4,325.9v593.6"/>
	<path class="st19" d="M1858.7,325.9v647.5"/>
	<path class="st18" d="M1887.4,325.9v701.5"/>
	<path class="st18" d="M1918.8,325.9v917.3"/>
	<path class="st19" d="M1918.8,325.9v863.4"/>
	<path class="st18" d="M1938.2,325.9v809.4"/>
	<path class="st18" d="M2224,325.9v1456.9"/>
	<path class="st19" d="M2321.6,325.9v1510.9"/>
	<path class="st23" d="M938.8,325.9c0-3.8,3.1-6.9,6.9-6.9c3.8,0,6.9,3.1,6.9,6.9s-3.1,6.9-6.9,6.9
		C941.8,332.7,938.8,329.7,938.8,325.9z"/>
	<g>
		<text transform="matrix(1 0 0 1 703.8853 390.1523)" class="st9 st10 st20">Steven Stachurski 1885</text>
		<text transform="matrix(1 0 0 1 703.8853 390.1523)" class="st10 st20">Steven Stachurski 1885</text>
	</g>
	<path class="st17" d="M3418.8,372.9h13.8v13.8h-13.8V372.9z"/>
	<g>
		<text transform="matrix(1 0 0 1 3442.9067 390.1523)" class="st9 st10 st20">1959</text>
		<text transform="matrix(1 0 0 1 3442.9067 390.1523)" class="st10 st20">1959</text>
	</g>
	<path class="st19" d="M1914.3,379.8v701.5"/>
	<path class="st19" d="M1950.2,379.8v917.3"/>
	<path class="st18" d="M2013,379.8v971.3"/>
	<path class="st19" d="M2044.4,379.8V1405"/>
	<path class="st18" d="M2075.7,379.8V1459"/>
	<path class="st19" d="M2132.1,379.8v1241.1"/>
	<path class="st18" d="M2132.1,379.8v1187.1"/>
	<path class="st17" d="M1097.9,379.8c0-3.8,3.1-6.9,6.9-6.9s6.9,3.1,6.9,6.9c0,3.8-3.1,6.9-6.9,6.9S1097.9,383.6,1097.9,379.8z"/>
	<g>
		<text transform="matrix(1 0 0 1 957.2252 444.1015)" class="st21 st10 st20">Julia Tomaszkiewicz 1894</text>
		<text transform="matrix(1 0 0 1 957.2252 444.1015)" class="st22 st10 st20">Julia Tomaszkiewicz 1894</text>
	</g>
	<path class="st23" d="M3952.5,426.9h13.8v13.8h-13.8V426.9z"/>
	<g>
		<text transform="matrix(1 0 0 1 3976.5825 444.1015)" class="st21 st10 st20">1976</text>
		<text transform="matrix(1 0 0 1 3976.5825 444.1015)" class="st10 st20">1976</text>
	</g>
	<path class="st19" d="M1914.3,433.8v647.5"/>
	<path class="st19" d="M1950.2,433.8v863.4"/>
	<path class="st18" d="M2013,433.8v917.3"/>
	<path class="st19" d="M2044.4,433.8V1405"/>
	<path class="st18" d="M2075.7,433.8V1459"/>
	<path class="st19" d="M2132.1,433.8v1187.1"/>
	<path class="st18" d="M2132.1,433.8v1133.2"/>
	<path class="st23" d="M1378.3,433.8c0-3.8,3.1-6.9,6.9-6.9c3.8,0,6.9,3.1,6.9,6.9c0,3.8-3.1,6.9-6.9,6.9
		C1381.4,440.7,1378.3,437.6,1378.3,433.8z"/>
	<g>
		<text transform="matrix(1 0 0 1 905.4615 498.0546)" class="st9 st10 st20">Marie Tomaszkiewicz 1893</text>
		<text transform="matrix(1 0 0 1 905.4615 498.0546)" class="st10 st20">Marie Tomaszkiewicz 1893</text>
	</g>
	<path class="st17" d="M1346.9,487.7c0-3.8,3.1-6.9,6.9-6.9s6.9,3.1,6.9,6.9c0,3.8-3.1,6.9-6.9,6.9S1346.9,491.5,1346.9,487.7z"/>
	<g>
		<text transform="matrix(1 0 0 1 1168.0688 552.039)" class="st21 st10 st20">Steven Malinowski 1900</text>
		<text transform="matrix(1 0 0 1 1168.0688 552.039)" class="st22 st10 st20">Steven Malinowski 1900</text>
	</g>
	<path class="st23" d="M1566.6,541.7c0-3.8,3.1-6.9,6.9-6.9c3.8,0,6.9,3.1,6.9,6.9c0,3.8-3.1,6.9-6.9,6.9
		C1569.7,548.6,1566.6,545.5,1566.6,541.7z"/>
	<g>
		<text transform="matrix(1 0 0 1 1169.0767 605.9882)" class="st9 st10 st20">Pauline Malinowski 1900</text>
		<text transform="matrix(1 0 0 1 1169.0767 605.9882)" class="st10 st20">Pauline Malinowski 1900</text>
	</g>
	<path class="st17" d="M1566.6,595.6c0-3.8,3.1-6.9,6.9-6.9c3.8,0,6.9,3.1,6.9,6.9c0,3.8-3.1,6.9-6.9,6.9
		C1569.7,602.5,1566.6,599.5,1566.6,595.6z"/>
	<g>
		<text transform="matrix(1 0 0 1 1162.9399 659.9413)" class="st21 st10 st20">Joseph Malinowski 1900</text>
		<text transform="matrix(1 0 0 1 1162.9399 659.9413)" class="st22 st10 st20">Joseph Malinowski 1900</text>
	</g>
	<path class="st23" d="M1566.6,649.6c0-3.8,3.1-6.9,6.9-6.9c3.8,0,6.9,3.1,6.9,6.9c0,3.8-3.1,6.9-6.9,6.9
		C1569.7,656.5,1566.6,653.4,1566.6,649.6z"/>
	<g>
		<text transform="matrix(1 0 0 1 1191.1919 713.8906)" class="st9 st10 st20">Michael Mostwikowski Jr 1904</text>
		<text transform="matrix(1 0 0 1 1191.1919 713.8906)" class="st10 st20">Michael Mostwikowski Jr 1904</text>
	</g>
	<path class="st17" d="M2477,696.7h13.8v13.8H2477V696.7z"/>
	<g>
		<text transform="matrix(1 0 0 1 2501.1353 713.8906)" class="st9 st10 st20">1929</text>
		<text transform="matrix(1 0 0 1 2501.1353 713.8906)" class="st10 st20">1929</text>
	</g>
	<path class="st17" d="M1692.1,703.6c0-3.8,3.1-6.9,6.9-6.9c3.8,0,6.9,3.1,6.9,6.9c0,3.8-3.1,6.9-6.9,6.9
		C1695.2,710.5,1692.1,707.4,1692.1,703.6z"/>
	<g>
		<text transform="matrix(1 0 0 1 1321.0923 767.8749)" class="st21 st10 st20">Frank Mostwikowski 1905</text>
		<text transform="matrix(1 0 0 1 1321.0923 767.8749)" class="st22 st10 st20">Frank Mostwikowski 1905</text>
	</g>
	<path class="st23" d="M1755,750.6h13.8v13.8H1755V750.6z"/>
	<g>
		<text transform="matrix(1 0 0 1 1779.0708 767.8749)" class="st21 st10 st20">1906</text>
		<text transform="matrix(1 0 0 1 1779.0708 767.8749)" class="st10 st20">1906</text>
	</g>
	<path class="st23" d="M1747,757.5c0-3.8,3.1-6.9,6.9-6.9c3.8,0,6.9,3.1,6.9,6.9c0,3.8-3.1,6.9-6.9,6.9
		C1750.1,764.4,1747,761.3,1747,757.5z"/>
	<g>
		<text transform="matrix(1 0 0 1 1337.0024 821.8281)" class="st9 st10 st20">Walter Mostwikowski 1906</text>
		<text transform="matrix(1 0 0 1 1337.0024 821.8281)" class="st10 st20">Walter Mostwikowski 1906</text>
	</g>
	<path class="st17" d="M1786.3,804.6h13.8v13.8h-13.8V804.6z"/>
	<g>
		<text transform="matrix(1 0 0 1 1810.436 821.8281)" class="st9 st10 st20">1907</text>
		<text transform="matrix(1 0 0 1 1810.436 821.8281)" class="st10 st20">1907</text>
	</g>
	<path class="st17" d="M1773.2,811.5c0-3.8,3.1-6.9,6.9-6.9c3.8,0,6.9,3.1,6.9,6.9c0,3.8-3.1,6.9-6.9,6.9
		C1776.3,818.4,1773.2,815.3,1773.2,811.5z"/>
	<g>
		<text transform="matrix(1 0 0 1 1356.0728 875.7773)" class="st21 st10 st20">Virginia Mostwikowski 1907</text>
		<text transform="matrix(1 0 0 1 1356.0728 875.7773)" class="st22 st10 st20">Virginia Mostwikowski 1907</text>
	</g>
	<path class="st23" d="M1817.7,858.6h13.8v13.8h-13.8V858.6z"/>
	<g>
		<text transform="matrix(1 0 0 1 1841.8169 875.7773)" class="st21 st10 st20">1908</text>
		<text transform="matrix(1 0 0 1 1841.8169 875.7773)" class="st10 st20">1908</text>
	</g>
	<path class="st23" d="M1799.3,865.4c0-3.8,3.1-6.9,6.9-6.9c3.8,0,6.9,3.1,6.9,6.9s-3.1,6.9-6.9,6.9
		C1802.4,872.3,1799.3,869.3,1799.3,865.4z"/>
	<g>
		<text transform="matrix(1 0 0 1 1405.938 929.7304)" class="st9 st10 st20">Stella Mostwikowski 1908</text>
		<text transform="matrix(1 0 0 1 1405.938 929.7304)" class="st10 st20">Stella Mostwikowski 1908</text>
	</g>
	<path class="st19" d="M2201.3,919.4v809.4"/>
	<path class="st18" d="M2201.3,919.4v755.4"/>
	<path class="st17" d="M1825.5,919.4c0-3.8,3.1-6.9,6.9-6.9c3.8,0,6.9,3.1,6.9,6.9s-3.1,6.9-6.9,6.9
		C1828.6,926.3,1825.5,923.2,1825.5,919.4z"/>
	<g>
		<text transform="matrix(1 0 0 1 1406.7622 983.7148)" class="st21 st10 st20">James Mostwikowski 1909</text>
		<text transform="matrix(1 0 0 1 1406.7622 983.7148)" class="st22 st10 st20">James Mostwikowski 1909</text>
	</g>
	<path class="st23" d="M1880.5,966.5h13.8v13.8h-13.8V966.5z"/>
	<g>
		<text transform="matrix(1 0 0 1 1904.647 983.7148)" class="st21 st10 st20">1910</text>
		<text transform="matrix(1 0 0 1 1904.647 983.7148)" class="st10 st20">1910</text>
	</g>
	<path class="st23" d="M1851.8,973.4c0-3.8,3.1-6.9,6.9-6.9c3.8,0,6.9,3.1,6.9,6.9c0,3.8-3.1,6.9-6.9,6.9
		C1854.9,980.3,1851.8,977.2,1851.8,973.4z"/>
	<g>
		<text transform="matrix(1 0 0 1 1471.1899 1037.6639)" class="st9 st10 st20">Mary Mostwikowski 1910</text>
		<text transform="matrix(1 0 0 1 1471.1899 1037.6639)" class="st10 st20">Mary Mostwikowski 1910</text>
	</g>
	<path class="st18" d="M2515.3,1027.3v1187.1"/>
	<path class="st19" d="M2515.3,1027.3v1133.2"/>
	<path class="st17" d="M1880.5,1027.3c0-3.8,3.1-6.9,6.9-6.9s6.9,3.1,6.9,6.9c0,3.8-3.1,6.9-6.9,6.9S1880.5,1031.1,1880.5,1027.3z"
		/>
	<g>
		<text transform="matrix(1 0 0 1 1536.7271 1091.6171)" class="st21 st10 st20">Martin Stachurski 1910</text>
		<text transform="matrix(1 0 0 1 1536.7271 1091.6171)" class="st22 st10 st20">Martin Stachurski 1910</text>
	</g>
	<path class="st23" d="M4109.5,1074.4h13.8v13.8h-13.8V1074.4z"/>
	<g>
		<text transform="matrix(1 0 0 1 4133.6255 1091.6171)" class="st21 st10 st20">1981</text>
		<text transform="matrix(1 0 0 1 4133.6255 1091.6171)" class="st10 st20">1981</text>
	</g>
	<path class="st19" d="M2742.7,1081.3v1618.8"/>
	<path class="st18" d="M2903.6,1081.3V2754"/>
	<path class="st23" d="M1907.4,1081.3c0-3.8,3.1-6.9,6.9-6.9c3.8,0,6.9,3.1,6.9,6.9s-3.1,6.9-6.9,6.9
		C1910.5,1088.2,1907.4,1085.1,1907.4,1081.3z"/>
	<g>
		<text transform="matrix(1 0 0 1 1518.397 1145.5663)" class="st9 st10 st20">Helen Mostwikowski 1911</text>
		<text transform="matrix(1 0 0 1 1518.397 1145.5663)" class="st10 st20">Helen Mostwikowski 1911</text>
	</g>
	<path class="st17" d="M4360.7,1128.4h13.8v13.8h-13.8V1128.4z"/>
	<g>
		<text transform="matrix(1 0 0 1 4384.7622 1145.5663)" class="st9 st10 st20">1989</text>
		<text transform="matrix(1 0 0 1 4384.7622 1145.5663)" class="st10 st20">1989</text>
	</g>
	<path class="st19" d="M2742.7,1135.2v1564.8"/>
	<path class="st18" d="M2903.6,1135.2V2754"/>
	<path class="st17" d="M1931.3,1135.2c0-3.8,3.1-6.9,6.9-6.9c3.8,0,6.9,3.1,6.9,6.9c0,3.8-3.1,6.9-6.9,6.9
		C1934.4,1142.1,1931.3,1139.1,1931.3,1135.2z"/>
	<g>
		<text transform="matrix(1 0 0 1 1471.2231 1199.5507)" class="st21 st10 st20">Eleanor Mostwikowski 1911</text>
		<text transform="matrix(1 0 0 1 1471.2231 1199.5507)" class="st22 st10 st20">Eleanor Mostwikowski 1911</text>
	</g>
	<path class="st23" d="M1911.9,1189.2c0-3.8,3.1-6.9,6.9-6.9s6.9,3.1,6.9,6.9c0,3.8-3.1,6.9-6.9,6.9S1911.9,1193,1911.9,1189.2z"/>
	<g>
		<text transform="matrix(1 0 0 1 1466.1099 1253.5038)" class="st9 st10 st20">Edward Mostwikowski 1911</text>
		<text transform="matrix(1 0 0 1 1466.1099 1253.5038)" class="st10 st20">Edward Mostwikowski 1911</text>
	</g>
	<path class="st17" d="M3450.2,1236.3h13.8v13.8h-13.8V1236.3z"/>
	<g>
		<text transform="matrix(1 0 0 1 3474.2896 1253.5038)" class="st9 st10 st20">1960</text>
		<text transform="matrix(1 0 0 1 3474.2896 1253.5038)" class="st10 st20">1960</text>
	</g>
	<path class="st17" d="M1911.9,1243.2c0-3.8,3.1-6.9,6.9-6.9s6.9,3.1,6.9,6.9c0,3.8-3.1,6.9-6.9,6.9S1911.9,1247,1911.9,1243.2z"/>
	<g>
		<text transform="matrix(1 0 0 1 1572.8188 1307.453)" class="st21 st10 st20">Edwin Stachurski 1912</text>
		<text transform="matrix(1 0 0 1 1572.8188 1307.453)" class="st22 st10 st20">Edwin Stachurski 1912</text>
	</g>
	<path class="st23" d="M2445.6,1290.2h13.8v13.8h-13.8V1290.2z"/>
	<g>
		<text transform="matrix(1 0 0 1 2469.686 1307.453)" class="st21 st10 st20">1928</text>
		<text transform="matrix(1 0 0 1 2469.686 1307.453)" class="st10 st20">1928</text>
	</g>
	<path class="st23" d="M1943.3,1297.1c0-3.8,3.1-6.9,6.9-6.9c3.8,0,6.9,3.1,6.9,6.9c0,3.8-3.1,6.9-6.9,6.9
		C1946.4,1304,1943.3,1300.9,1943.3,1297.1z"/>
	<g>
		<text transform="matrix(1 0 0 1 1626.1802 1361.4374)" class="st9 st10 st20">Marian Stachurski 1914</text>
		<text transform="matrix(1 0 0 1 1626.1802 1361.4374)" class="st10 st20">Marian Stachurski 1914</text>
	</g>
	<path class="st19" d="M2515.3,1351.1v917.3"/>
	<path class="st18" d="M2515.3,1351.1v755.4"/>
	<path class="st19" d="M2515.3,1351.1v701.5"/>
	<path class="st18" d="M2515.3,1351.1v647.5"/>
	<path class="st17" d="M2006.1,1351.1c0-3.8,3.1-6.9,6.9-6.9c3.8,0,6.9,3.1,6.9,6.9c0,3.8-3.1,6.9-6.9,6.9
		C2009.2,1358,2006.1,1354.9,2006.1,1351.1z"/>
	<g>
		<text transform="matrix(1 0 0 1 1611.1958 1415.3905)" class="st21 st10 st20">Steven Stachurski Jr 1915</text>
		<text transform="matrix(1 0 0 1 1611.1958 1415.3905)" class="st22 st10 st20">Steven Stachurski Jr 1915</text>
	</g>
	<path class="st23" d="M2037.5,1405c0-3.8,3.1-6.9,6.9-6.9s6.9,3.1,6.9,6.9c0,3.8-3.1,6.9-6.9,6.9S2037.5,1408.9,2037.5,1405z"/>
	<g>
		<text transform="matrix(1 0 0 1 1684.438 1469.3397)" class="st9 st10 st20">Matilda Stachurski 1916</text>
		<text transform="matrix(1 0 0 1 1684.438 1469.3397)" class="st10 st20">Matilda Stachurski 1916</text>
	</g>
	<path class="st19" d="M2578,1459v917.3"/>
	<path class="st18" d="M2578,1459v863.4"/>
	<path class="st17" d="M2068.8,1459c0-3.8,3.1-6.9,6.9-6.9s6.9,3.1,6.9,6.9c0,3.8-3.1,6.9-6.9,6.9S2068.8,1462.8,2068.8,1459z"/>
	<g>
		<text transform="matrix(1 0 0 1 1769.8208 1523.2928)" class="st21 st10 st20">Dorthy Doda 1916</text>
		<text transform="matrix(1 0 0 1 1769.8208 1523.2928)" class="st22 st10 st20">Dorthy Doda 1916</text>
	</g>
	<path class="st23" d="M2068.8,1513c0-3.8,3.1-6.9,6.9-6.9s6.9,3.1,6.9,6.9c0,3.8-3.1,6.9-6.9,6.9S2068.8,1516.8,2068.8,1513z"/>
	<g>
		<text transform="matrix(1 0 0 1 1735.5806 1577.2772)" class="st9 st10 st20">Joseph Stachurski 1917</text>
		<text transform="matrix(1 0 0 1 1735.5806 1577.2772)" class="st10 st20">Joseph Stachurski 1917</text>
	</g>
	<path class="st17" d="M5056.6,1560h13.8v13.8h-13.8V1560z"/>
	<g>
		<text transform="matrix(1 0 0 1 5080.7114 1577.2772)" class="st9 st10 st20">2011</text>
		<text transform="matrix(1 0 0 1 5080.7114 1577.2772)" class="st10 st20">2011</text>
	</g>
	<path class="st19" d="M2326.9,1566.9v377.7"/>
	<path class="st18" d="M2326.9,1566.9v323.8"/>
	<path class="st19" d="M2640.9,1566.9v917.3"/>
	<path class="st17" d="M2125.2,1566.9c0-3.8,3.1-6.9,6.9-6.9c3.8,0,6.9,3.1,6.9,6.9c0,3.8-3.1,6.9-6.9,6.9
		C2128.3,1573.8,2125.2,1570.7,2125.2,1566.9z"/>
	<g>
		<text transform="matrix(1 0 0 1 1763.0767 1631.2264)" class="st21 st10 st20">Helen Stachurski 1917</text>
		<text transform="matrix(1 0 0 1 1763.0767 1631.2264)" class="st22 st10 st20">Helen Stachurski 1917</text>
	</g>
	<path class="st23" d="M2131.7,1614h13.8v13.8h-13.8V1614z"/>
	<g>
		<text transform="matrix(1 0 0 1 2155.7856 1631.2264)" class="st21 st10 st20">1918</text>
		<text transform="matrix(1 0 0 1 2155.7856 1631.2264)" class="st10 st20">1918</text>
	</g>
	<path class="st23" d="M2125.2,1620.9c0-3.8,3.1-6.9,6.9-6.9c3.8,0,6.9,3.1,6.9,6.9c0,3.8-3.1,6.9-6.9,6.9
		C2128.3,1627.8,2125.2,1624.7,2125.2,1620.9z"/>
	<g>
		<text transform="matrix(1 0 0 1 1849.4849 1685.1796)" class="st9 st10 st20">Pat Koffenberg 1920</text>
		<text transform="matrix(1 0 0 1 1849.4849 1685.1796)" class="st10 st20">Pat Koffenberg 1920</text>
	</g>
	<path class="st17" d="M2194.4,1674.8c0-3.8,3.1-6.9,6.9-6.9s6.9,3.1,6.9,6.9c0,3.8-3.1,6.9-6.9,6.9S2194.4,1678.7,2194.4,1674.8z"
		/>
	<g>
		<text transform="matrix(1 0 0 1 1818.2212 1739.1288)" class="st21 st10 st20">Harry Koffenberg 1920</text>
		<text transform="matrix(1 0 0 1 1818.2212 1739.1288)" class="st22 st10 st20">Harry Koffenberg 1920</text>
	</g>
	<path class="st23" d="M2194.4,1728.8c0-3.8,3.1-6.9,6.9-6.9s6.9,3.1,6.9,6.9c0,3.8-3.1,6.9-6.9,6.9S2194.4,1732.6,2194.4,1728.8z"
		/>
	<g>
		<text transform="matrix(1 0 0 1 1795.9224 1793.1132)" class="st9 st10 st20">Anne Mostwikowski 1920</text>
		<text transform="matrix(1 0 0 1 1795.9224 1793.1132)" class="st10 st20">Anne Mostwikowski 1920</text>
	</g>
	<path class="st17" d="M4229.1,1775.9h13.8v13.8h-13.8V1775.9z"/>
	<g>
		<text transform="matrix(1 0 0 1 4253.1646 1793.1132)" class="st9 st10 st20">1984</text>
		<text transform="matrix(1 0 0 1 4253.1646 1793.1132)" class="st10 st20">1984</text>
	</g>
	<path class="st18" d="M2640.9,1782.8v863.4"/>
	<path class="st19" d="M2640.9,1782.8v809.4"/>
	<path class="st18" d="M2640.9,1782.8v755.4"/>
	<path class="st18" d="M2640.9,1782.8v647.5"/>
	<path class="st19" d="M3450.2,1782.8v1241.1"/>
	<path class="st17" d="M2217.1,1782.8c0-3.8,3.1-6.9,6.9-6.9c3.8,0,6.9,3.1,6.9,6.9c0,3.8-3.1,6.9-6.9,6.9
		C2220.2,1789.7,2217.1,1786.6,2217.1,1782.8z"/>
	<g>
		<text transform="matrix(1 0 0 1 1860.77 1847.0663)" class="st21 st10 st20">Casimir Mostwikowski 1923</text>
		<text transform="matrix(1 0 0 1 1860.77 1847.0663)" class="st22 st10 st20">Casimir Mostwikowski 1923</text>
	</g>
	<path class="st18" d="M3143.2,1836.7v1133.2"/>
	<path class="st19" d="M3143.2,1836.7v1079.2"/>
	<path class="st18" d="M3143.2,1836.7V2862"/>
	<path class="st23" d="M2314.7,1836.7c0-3.8,3.1-6.9,6.9-6.9s6.9,3.1,6.9,6.9c0,3.8-3.1,6.9-6.9,6.9S2314.7,1840.5,2314.7,1836.7z"
		/>
	<g>
		<text transform="matrix(1 0 0 1 1930.4282 1901.0155)" class="st9 st10 st20">Denise Stachurski 1924</text>
		<text transform="matrix(1 0 0 1 1930.4282 1901.0155)" class="st10 st20">Denise Stachurski 1924</text>
	</g>
	<path class="st17" d="M2320,1890.7c0-3.8,3.1-6.9,6.9-6.9c3.8,0,6.9,3.1,6.9,6.9s-3.1,6.9-6.9,6.9
		C2323.1,1897.6,2320,1894.5,2320,1890.7z"/>
	<g>
		<text transform="matrix(1 0 0 1 1949.8872 1954.9686)" class="st21 st10 st20">David Stachurski 1924</text>
		<text transform="matrix(1 0 0 1 1949.8872 1954.9686)" class="st22 st10 st20">David Stachurski 1924</text>
	</g>
	<path class="st23" d="M2320,1944.6c0-3.8,3.1-6.9,6.9-6.9c3.8,0,6.9,3.1,6.9,6.9c0,3.8-3.1,6.9-6.9,6.9
		C2323.1,1951.5,2320,1948.5,2320,1944.6z"/>
	<g>
		<text transform="matrix(1 0 0 1 2116.6333 2008.953)" class="st9 st10 st20">Wayne Stachurski 1930</text>
		<text transform="matrix(1 0 0 1 2116.6333 2008.953)" class="st10 st20">Wayne Stachurski 1930</text>
	</g>
	<path class="st17" d="M2508.4,1998.6c0-3.8,3.1-6.9,6.9-6.9c3.8,0,6.9,3.1,6.9,6.9c0,3.8-3.1,6.9-6.9,6.9
		C2511.5,2005.5,2508.4,2002.4,2508.4,1998.6z"/>
	<g>
		<text transform="matrix(1 0 0 1 2105.1646 2062.9023)" class="st21 st10 st20">Richard Stachurski 1930</text>
		<text transform="matrix(1 0 0 1 2105.1646 2062.9023)" class="st22 st10 st20">Richard Stachurski 1930</text>
	</g>
	<path class="st23" d="M2508.4,2052.6c0-3.8,3.1-6.9,6.9-6.9c3.8,0,6.9,3.1,6.9,6.9s-3.1,6.9-6.9,6.9
		C2511.5,2059.5,2508.4,2056.4,2508.4,2052.6z"/>
	<g>
		<text transform="matrix(1 0 0 1 2091.4243 2116.8555)" class="st9 st10 st20">Kenneth Stachurski 1930</text>
		<text transform="matrix(1 0 0 1 2091.4243 2116.8555)" class="st10 st20">Kenneth Stachurski 1930</text>
	</g>
	<path class="st17" d="M2508.4,2106.5c0-3.8,3.1-6.9,6.9-6.9c3.8,0,6.9,3.1,6.9,6.9s-3.1,6.9-6.9,6.9
		C2511.5,2113.4,2508.4,2110.3,2508.4,2106.5z"/>
	<g>
		<text transform="matrix(1 0 0 1 2197.2915 2170.8398)" class="st21 st10 st20">Kathy Weber 1930</text>
		<text transform="matrix(1 0 0 1 2197.2915 2170.8398)" class="st22 st10 st20">Kathy Weber 1930</text>
	</g>
	<path class="st23" d="M2508.4,2160.5c0-3.8,3.1-6.9,6.9-6.9c3.8,0,6.9,3.1,6.9,6.9c0,3.8-3.1,6.9-6.9,6.9
		C2511.5,2167.4,2508.4,2164.3,2508.4,2160.5z"/>
	<g>
		<text transform="matrix(1 0 0 1 2210.9302 2224.7891)" class="st9 st10 st20">Jerry Weber 1930</text>
		<text transform="matrix(1 0 0 1 2210.9302 2224.7891)" class="st10 st20">Jerry Weber 1930</text>
	</g>
	<path class="st17" d="M2508.4,2214.4c0-3.8,3.1-6.9,6.9-6.9c3.8,0,6.9,3.1,6.9,6.9c0,3.8-3.1,6.9-6.9,6.9
		C2511.5,2221.3,2508.4,2218.3,2508.4,2214.4z"/>
	<g>
		<text transform="matrix(1 0 0 1 2133.5024 2278.7422)" class="st21 st10 st20">Glenn Stachurski 1930</text>
		<text transform="matrix(1 0 0 1 2133.5024 2278.7422)" class="st22 st10 st20">Glenn Stachurski 1930</text>
	</g>
	<path class="st23" d="M2508.4,2268.4c0-3.8,3.1-6.9,6.9-6.9c3.8,0,6.9,3.1,6.9,6.9c0,3.8-3.1,6.9-6.9,6.9
		C2511.5,2275.3,2508.4,2272.2,2508.4,2268.4z"/>
	<g>
		<text transform="matrix(1 0 0 1 2257.5161 2332.6914)" class="st9 st10 st20">Marilyn Smith 1932</text>
		<text transform="matrix(1 0 0 1 2257.5161 2332.6914)" class="st10 st20">Marilyn Smith 1932</text>
	</g>
	<path class="st17" d="M2571.1,2322.4c0-3.8,3.1-6.9,6.9-6.9c3.8,0,6.9,3.1,6.9,6.9s-3.1,6.9-6.9,6.9
		C2574.2,2329.3,2571.1,2326.2,2571.1,2322.4z"/>
	<g>
		<text transform="matrix(1 0 0 1 2267.3716 2386.6758)" class="st21 st10 st20">Joyce Smith 1932</text>
		<text transform="matrix(1 0 0 1 2267.3716 2386.6758)" class="st22 st10 st20">Joyce Smith 1932</text>
	</g>
	<path class="st23" d="M2571.1,2376.3c0-3.8,3.1-6.9,6.9-6.9c3.8,0,6.9,3.1,6.9,6.9s-3.1,6.9-6.9,6.9
		C2574.2,2383.2,2571.1,2380.1,2571.1,2376.3z"/>
	<g>
		<text transform="matrix(1 0 0 1 2239.3013 2440.6289)" class="st9 st10 st20">Wayne Miskiewicz 1934</text>
		<text transform="matrix(1 0 0 1 2239.3013 2440.6289)" class="st10 st20">Wayne Miskiewicz 1934</text>
	</g>
	<path class="st17" d="M2634,2430.3c0-3.8,3.1-6.9,6.9-6.9s6.9,3.1,6.9,6.9c0,3.8-3.1,6.9-6.9,6.9S2634,2434.1,2634,2430.3z"/>
	<g>
		<text transform="matrix(1 0 0 1 2272.231 2494.5781)" class="st21 st10 st20">Mark Stachurski 1934</text>
		<text transform="matrix(1 0 0 1 2272.231 2494.5781)" class="st22 st10 st20">Mark Stachurski 1934</text>
	</g>
	<path class="st23" d="M2634,2484.2c0-3.8,3.1-6.9,6.9-6.9s6.9,3.1,6.9,6.9c0,3.8-3.1,6.9-6.9,6.9S2634,2488.1,2634,2484.2z"/>
	<g>
		<text transform="matrix(1 0 0 1 2230.4224 2548.5273)" class="st9 st10 st20">Cynthia Miskiewicz 1934</text>
		<text transform="matrix(1 0 0 1 2230.4224 2548.5273)" class="st10 st20">Cynthia Miskiewicz 1934</text>
	</g>
	<path class="st17" d="M2634,2538.2c0-3.8,3.1-6.9,6.9-6.9s6.9,3.1,6.9,6.9c0,3.8-3.1,6.9-6.9,6.9S2634,2542,2634,2538.2z"/>
	<g>
		<text transform="matrix(1 0 0 1 2258.4907 2602.5156)" class="st21 st10 st20">Bryan Miskiewicz 1934</text>
		<text transform="matrix(1 0 0 1 2258.4907 2602.5156)" class="st22 st10 st20">Bryan Miskiewicz 1934</text>
	</g>
	<path class="st23" d="M2634,2592.2c0-3.8,3.1-6.9,6.9-6.9s6.9,3.1,6.9,6.9s-3.1,6.9-6.9,6.9S2634,2596,2634,2592.2z"/>
	<g>
		<text transform="matrix(1 0 0 1 2234.4927 2656.4648)" class="st9 st10 st20">Beverly Miskiewicz 1934</text>
		<text transform="matrix(1 0 0 1 2234.4927 2656.4648)" class="st10 st20">Beverly Miskiewicz 1934</text>
	</g>
	<path class="st17" d="M2634,2646.1c0-3.8,3.1-6.9,6.9-6.9s6.9,3.1,6.9,6.9s-3.1,6.9-6.9,6.9S2634,2649.9,2634,2646.1z"/>
	<g>
		<text transform="matrix(1 0 0 1 2404.3501 2710.4141)" class="st21 st10 st20">Martin Stark Jr 1937</text>
		<text transform="matrix(1 0 0 1 2404.3501 2710.4141)" class="st22 st10 st20">Martin Stark Jr 1937</text>
	</g>
	<path class="st23" d="M2735.8,2700.1c0-3.8,3.1-6.9,6.9-6.9s6.9,3.1,6.9,6.9s-3.1,6.9-6.9,6.9S2735.8,2703.9,2735.8,2700.1z"/>
	<g>
		<text transform="matrix(1 0 0 1 2592.0181 2764.3672)" class="st9 st10 st20">Dennis Stark 1942</text>
		<text transform="matrix(1 0 0 1 2592.0181 2764.3672)" class="st10 st20">Dennis Stark 1942</text>
	</g>
	<path class="st18" d="M4392.7,2754v323.8"/>
	<path class="st19" d="M4431.5,2754v377.7"/>
	<path class="st17" d="M2896.7,2754c0-3.8,3.1-6.9,6.9-6.9s6.9,3.1,6.9,6.9s-3.1,6.9-6.9,6.9S2896.7,2757.9,2896.7,2754z"/>
	<g>
		<text transform="matrix(1 0 0 1 2842.7856 2818.3516)" class="st21 st10 st20">Simone Maechler 1952</text>
		<text transform="matrix(1 0 0 1 2842.7856 2818.3516)" class="st22 st10 st20">Simone Maechler 1952</text>
	</g>
	<path class="st23" d="M5208.7,2801.1h13.8v13.8h-13.8V2801.1z"/>
	<g>
		<text transform="matrix(1 0 0 1 5232.8423 2818.3516)" class="st21 st10 st20">2016</text>
		<text transform="matrix(1 0 0 1 5232.8423 2818.3516)" class="st10 st20">2016</text>
	</g>
	<path class="st18" d="M4392.7,2808v269.8"/>
	<path class="st19" d="M4431.5,2808v323.8"/>
	<path class="st23" d="M3229.2,2808c0-3.8,3.1-6.9,6.9-6.9s6.9,3.1,6.9,6.9s-3.1,6.9-6.9,6.9S3229.2,2811.8,3229.2,2808z"/>
	<g>
		<text transform="matrix(1 0 0 1 2725.6685 2872.3008)" class="st9 st10 st20">Myla Mostwikowski 1950</text>
		<text transform="matrix(1 0 0 1 2725.6685 2872.3008)" class="st10 st20">Myla Mostwikowski 1950</text>
	</g>
	<path class="st17" d="M3136.3,2862c0-3.8,3.1-6.9,6.9-6.9s6.9,3.1,6.9,6.9c0,3.8-3.1,6.9-6.9,6.9S3136.3,2865.8,3136.3,2862z"/>
	<g>
		<text transform="matrix(1 0 0 1 2711.2388 2926.2539)" class="st21 st10 st20">Kevin Mostwikowski 1950</text>
		<text transform="matrix(1 0 0 1 2711.2388 2926.2539)" class="st22 st10 st20">Kevin Mostwikowski 1950</text>
	</g>
	<path class="st23" d="M3136.3,2915.9c0-3.8,3.1-6.9,6.9-6.9s6.9,3.1,6.9,6.9c0,3.8-3.1,6.9-6.9,6.9S3136.3,2919.7,3136.3,2915.9z"
		/>
	<g>
		<text transform="matrix(1 0 0 1 2704.8657 2980.2383)" class="st9 st10 st20">Glenn Mostwikowski 1950</text>
		<text transform="matrix(1 0 0 1 2704.8657 2980.2383)" class="st10 st20">Glenn Mostwikowski 1950</text>
	</g>
	<path class="st17" d="M3136.3,2969.9c0-3.8,3.1-6.9,6.9-6.9s6.9,3.1,6.9,6.9c0,3.8-3.1,6.9-6.9,6.9S3136.3,2973.7,3136.3,2969.9z"
		/>
	<g>
		<text transform="matrix(1 0 0 1 3078.6548 3034.1875)" class="st21 st10 st20">Mark Miskiewicz 1959</text>
		<text transform="matrix(1 0 0 1 3078.6548 3034.1875)" class="st22 st10 st20">Mark Miskiewicz 1959</text>
	</g>
	<path class="st23" d="M3443.3,3023.8c0-3.8,3.1-6.9,6.9-6.9c3.8,0,6.9,3.1,6.9,6.9c0,3.8-3.1,6.9-6.9,6.9
		C3446.4,3030.7,3443.3,3027.7,3443.3,3023.8z"/>
	<g>
		<text transform="matrix(1 0 0 1 4075.7544 3088.1406)" class="st9 st10 st20">Nicolas Stark 1989</text>
		<text transform="matrix(1 0 0 1 4075.7544 3088.1406)" class="st10 st20">Nicolas Stark 1989</text>
	</g>
	<path class="st17" d="M4385.8,3077.8c0-3.8,3.1-6.9,6.9-6.9c3.8,0,6.9,3.1,6.9,6.9s-3.1,6.9-6.9,6.9
		C4388.9,3084.7,4385.8,3081.6,4385.8,3077.8z"/>
	<g>
		<text transform="matrix(1 0 0 1 4093.4146 3142.0898)" class="st21 st10 st20">Madeline Stark 1991</text>
		<text transform="matrix(1 0 0 1 4093.4146 3142.0898)" class="st22 st10 st20">Madeline Stark 1991</text>
	</g>
	<path class="st23" d="M4424.6,3131.8c0-3.8,3.1-6.9,6.9-6.9c3.8,0,6.9,3.1,6.9,6.9s-3.1,6.9-6.9,6.9
		C4427.7,3138.7,4424.6,3135.6,4424.6,3131.8z"/>
</g>
<g id="Layer_3">
	<path class="st24" d="M367.2,458.6c0,0,298,3.9,568.2,283.3s1426.1,2287.4,1426.1,2287.4s106.5,168.4,465.3,214.1v136.8H0V465.2
		L367.2,458.6z"/>
	<path class="st2" d="M725,584c354.3,108,1447.1,2244.8,1902.3,2522.4s988.7,277.6,988.7,277.6H0V568.1C0,568.1,282.3,449,725,584z"
		/>
</g>
<g id="Layer_5">
	<rect x="205.4" y="2052.6" class="st25" width="1509.2" height="1089.5"/>
	<rect x="311.7" y="2791.5" class="st26" width="1479.9" height="629.9"/>
	<text transform="matrix(1 0 0 1 311.6736 2845.8706)" class="st10 st27">THE</text>
	<rect x="293.7" y="2877.8" class="st26" width="1600.7" height="457.3"/>
	<text transform="matrix(1 0 0 1 293.6729 3081.6514)" class="st10 st28 st29">STARKS</text>
	<path class="st17" d="M311.7,2177.7c0-3.8,3.1-6.9,6.9-6.9c3.8,0,6.9,3.1,6.9,6.9s-3.1,6.9-6.9,6.9
		C314.8,2184.6,311.7,2181.5,311.7,2177.7z"/>
	<path class="st17" d="M311.7,2224.8h13.8v13.8h-13.8V2224.8z"/>
	<g>
		<text transform="matrix(1 0 0 1 375.3381 2187.4692)" class="st10 st20">Birth</text>
	</g>
	<g>
		<text transform="matrix(1 0 0 1 375.3381 2299.6489)" class="st10 st20">Marriage</text>
	</g>
	<g>
		<text transform="matrix(1 0 0 1 375.3381 2244.0984)" class="st10 st20">Death</text>
	</g>
	<path class="st30" d="M302.4,2263.1v54h32.2v-54H302.4z"/>
</g>
</svg>
